<svg width="40" height="40" viewBox="0 0 40 40" fill="none" xmlns="http://www.w3.org/2000/svg">
<path d="M35.918 22.762C36.9757 13.9804 35.4098 8.43632 32.5853 5.92874L32.5868 5.92728C28.0279 1.64502 12.6317 1.0112 7.17757 6.11961C4.72825 8.61845 3.86552 12.2858 3.77097 16.826C3.67643 21.3676 3.56415 29.8753 11.602 32.1833H11.6094L11.602 35.7079C11.602 35.7079 11.5474 37.1358 12.4721 37.4228C13.5299 37.7609 14.0085 37.0979 17.2984 33.2222C22.7998 33.6928 27.0248 32.6146 27.5049 32.4572C28.6158 32.09 34.9016 31.2697 35.918 22.762ZM17.8406 30.7423C17.8406 30.7423 14.3586 35.0245 13.2758 36.1363C12.9212 36.4976 12.5327 36.4641 12.5386 35.7472C12.5386 35.2766 12.5652 29.8957 12.5652 29.8957C5.75052 27.9695 6.15234 20.7251 6.22621 16.9353C6.30007 13.144 7.00326 10.0391 9.07735 7.94821C13.8623 3.52315 27.3601 4.51249 30.7992 7.70051C35.0036 11.3766 33.5071 21.7625 33.516 22.1165C32.6518 29.2182 27.5581 29.6684 26.6215 29.9759C26.2212 30.107 22.5058 31.0497 17.8406 30.7423Z" fill="black"/>
<path d="M19.767 8.78027C19.1982 8.78027 19.1982 9.6545 19.767 9.66179C24.1796 9.6953 27.8137 12.7289 27.8536 18.2933C27.8536 18.8805 28.7252 18.8732 28.7178 18.2861H28.7163C28.669 12.2903 24.7011 8.81379 19.767 8.78027Z" fill="black"/>
<path d="M25.5712 17.371C25.5579 17.9509 26.428 17.9786 26.4354 17.3914C26.5078 14.0854 24.4411 11.3621 20.5573 11.0751C19.9886 11.0343 19.9295 11.9158 20.4968 11.9566C23.865 12.2087 25.6392 14.4759 25.5712 17.371Z" fill="black"/>
<path d="M24.6404 21.1315C23.9106 20.7148 23.1676 20.9741 22.8603 21.3836L22.2177 22.2039C21.8912 22.6206 21.2811 22.5652 21.2811 22.5652C16.8286 21.404 15.6379 16.8084 15.6379 16.8084C15.6379 16.8084 15.5832 16.1863 15.991 15.8526L16.7946 15.197C17.1964 14.8822 17.4505 14.1246 17.0413 13.38C15.9481 11.4319 15.2139 10.7602 14.8402 10.2444C14.4472 9.75925 13.8563 9.64997 13.2417 9.97781H13.2285C11.9506 10.7151 10.5516 12.0949 10.9992 13.5155C11.763 15.0134 13.1664 19.7881 17.6396 23.3958C19.7418 25.102 23.0686 26.8504 24.4809 27.254L24.4942 27.2744C25.8858 27.7319 27.2389 26.2982 27.9613 25V24.9898C28.2819 24.3618 28.1755 23.7673 27.7072 23.3783C26.877 22.5798 25.6243 21.6983 24.6404 21.1315Z" fill="black"/>
<path d="M21.1659 14.3273C22.5856 14.4089 23.274 15.1403 23.3478 16.6425C23.3744 17.2297 24.2386 17.1889 24.212 16.6017C24.1175 14.6405 23.0804 13.5477 21.2132 13.4458C20.6444 13.4122 20.5912 14.2938 21.1659 14.3273Z" fill="black"/>
</svg>
