<svg width="80" height="80" viewBox="0 0 80 80" fill="none" xmlns="http://www.w3.org/2000/svg">
<rect x="48" y="27" width="17" height="18" fill="#00FA9A"/>
<path d="M80 3.70532H0V8.39282H2.49531V58.7792H37.6562V64.6849C35.4855 65.6019 33.9583 67.7525 33.9583 70.2533C33.9583 73.5847 36.6686 76.295 40 76.295C43.3314 76.295 46.0417 73.5847 46.0417 70.2533C46.0417 67.7525 44.5145 65.602 42.3438 64.6849V58.7792H77.5047V8.39282H80V3.70532ZM40 71.6072C39.2533 71.6072 38.6458 70.9997 38.6458 70.253C38.6458 69.5063 39.2533 68.8988 40 68.8988C40.7467 68.8988 41.3542 69.5063 41.3542 70.253C41.3542 70.9997 40.7467 71.6072 40 71.6072ZM72.8172 54.0917H7.18281V8.39282H72.8172V54.0917Z" fill="black"/>
<path d="M46.927 47.6494H68.0259V24.2107H46.927V47.6494ZM51.6145 28.8982H63.3384V42.9618H51.6145V28.8982Z" fill="black"/>
<path d="M11.0894 42.9619H43.0204V47.6494H11.0894V42.9619Z" fill="black"/>
<path d="M11.0894 33.5862H43.0204V38.2737H11.0894V33.5862Z" fill="black"/>
<path d="M11.0894 24.2107H43.0204V28.8982H11.0894V24.2107Z" fill="black"/>
<path d="M11.0894 14.835H57.8672V19.5225H11.0894V14.835Z" fill="black"/>
</svg>
