<svg width="80" height="80" viewBox="0 0 80 80" fill="none" xmlns="http://www.w3.org/2000/svg">
<rect x="6" y="10" width="67" height="17" fill="#00FA9A"/>
<path d="M68.0519 9.35063V0H61.8181V9.35063H55.5844V0H49.3506V9.35063H43.1169V0H36.8831V9.35063H30.6494V0H24.4156V9.35063H18.1819V0H11.9481V9.35063H1.55844V80H78.4416V9.35063H68.0519ZM72.2078 73.7663H7.79219V30.1298H72.2078V73.7663ZM72.2078 23.8961H7.79219V15.5844H72.2078V23.8961Z" fill="black"/>
<path d="M32.0358 65V60.5357H37.6913V45.1429H36.7964L32 48.3929V43.2857L36.7964 40H42.8456V60.5357H48V65H32.0358Z" fill="black"/>
</svg>
