<svg width="80" height="80" viewBox="0 0 80 80" fill="none" xmlns="http://www.w3.org/2000/svg">
<g clip-path="url(#clip0)">
<rect x="48" y="12" width="29" height="18" fill="#00FA9A"/>
<path d="M80 31.3321V7.5376H44.3647V12.2253H4.68781V57.1034H0V72.4624H80V57.1034H75.3122V31.3321H80ZM49.0522 12.2251H75.3125V26.6446H54.0334L49.0522 28.9851V12.2251ZM75.3125 67.7751H4.6875V61.791H37.658V63.9909H42.3455V61.791H75.3125V67.7751ZM24.6859 44.056C23.4016 44.056 22.3566 43.011 22.3566 41.7265C22.3566 40.4421 23.4016 39.3971 24.6859 39.3971C25.9705 39.3971 27.0155 40.4421 27.0155 41.7265C27.0155 43.011 25.9705 44.056 24.6859 44.056ZM23.363 48.7435H26.0136C29.0594 48.7435 31.5372 51.2214 31.5372 54.2671V57.1035H17.8392V54.2671C17.8394 51.2214 20.3172 48.7435 23.363 48.7435ZM70.6247 57.1034H36.2247V54.267C36.2247 50.3498 34.0064 46.9428 30.7612 45.2309C31.3589 44.1988 31.703 43.0024 31.703 41.7265C31.703 37.8573 28.5552 34.7096 24.6859 34.7096C20.8167 34.7096 17.6691 37.8574 17.6691 41.7265C17.6691 43.0032 18.0134 44.2003 18.6117 45.2328C15.3684 46.9454 13.1517 50.3514 13.1517 54.2671V57.1035H9.37516V16.9129H44.3645V36.3667L55.0797 31.3321H70.6247V57.1034Z" fill="black"/>
<path d="M15.4957 23.2654H33.8812V27.9529H15.4957V23.2654Z" fill="black"/>
<path d="M48.3326 47.728H66.718V52.4155H48.3326V47.728Z" fill="black"/>
<path d="M48.3326 38.3523H66.718V43.0398H48.3326V38.3523Z" fill="black"/>
</g>
<defs>
<clipPath id="clip0">
<rect width="80" height="80" fill="white"/>
</clipPath>
</defs>
</svg>
