<svg width="80" height="80" viewBox="0 0 80 80" fill="none" xmlns="http://www.w3.org/2000/svg">
<g clip-path="url(#clip0)">
<circle cx="35" cy="45" r="8" fill="#00FA9A"/>
<path d="M80 13.2397H9.37551V22.6154H0V66.7598H70.6243V57.3841H80V13.2397ZM65.9368 33.5529C62.9056 32.7253 60.5145 30.3342 59.6868 27.3029H65.9368V33.5529ZM54.8869 27.3029C55.868 32.9253 60.3143 37.3717 65.9368 38.3527V51.0225C60.3145 52.0035 55.868 56.4499 54.8869 62.0723H15.7372C14.7562 56.4501 10.3099 52.0036 4.68752 51.0225V38.3527C10.3099 37.3716 14.7562 32.9253 15.7372 27.3029H54.8869ZM10.9374 27.3029C10.1097 30.3342 7.71878 32.7251 4.68752 33.5529V27.3029H10.9374ZM4.68752 55.8224C7.71878 56.6501 10.1097 59.0412 10.9374 62.0724H4.68752V55.8224ZM59.6868 62.0724C60.5145 59.0412 62.9056 56.6501 65.9368 55.8224V62.0724H59.6868ZM75.3125 52.6968H70.6243V22.6154H14.063V17.9273H75.3125V52.6968Z" fill="black"/>
<path d="M35.3119 54.7429C40.8565 54.7429 45.3673 50.2321 45.3673 44.6876C45.3673 39.143 40.8565 34.6321 35.3119 34.6321C29.7674 34.6321 25.2565 39.143 25.2565 44.6876C25.2565 50.2321 29.7674 54.7429 35.3119 54.7429ZM35.3119 39.3196C38.2718 39.3196 40.6798 41.7277 40.6798 44.6876C40.6798 47.6474 38.2718 50.0554 35.3119 50.0554C32.3521 50.0554 29.944 47.6474 29.944 44.6876C29.944 41.7277 32.3521 39.3196 35.3119 39.3196Z" fill="black"/>
<path d="M51.028 42.344H58.698V47.0315H51.028V42.344Z" fill="black"/>
<path d="M11.926 42.344H19.5962V47.0315H11.926V42.344Z" fill="black"/>
</g>
<defs>
<clipPath id="clip0">
<rect width="80" height="80" fill="white"/>
</clipPath>
</defs>
</svg>
