<svg width="80" height="80" viewBox="0 0 80 80" fill="none" xmlns="http://www.w3.org/2000/svg">
<g clip-path="url(#clip0)">
<rect x="3" y="54" width="75" height="8" fill="#00FA9A"/>
<path d="M80 66.3423V8.96347H52.399C49.5738 5.1883 45.0674 2.74048 40 2.74048C34.9326 2.74048 30.4262 5.1883 27.601 8.96347H0V66.3423H28.2781V72.572H20.4638V77.2595H59.531V72.572H51.7168V66.3423H80ZM55.478 18.2185C55.478 16.6293 55.2369 15.0954 54.7899 13.651H75.3125V52.2791H63.6454V49.7919C63.6454 42.7644 58.0454 37.0237 51.074 36.7892C51.0777 36.7853 51.0815 36.7816 51.0852 36.7776H59.5312V32.0901C57.2962 32.0901 55.478 30.272 55.478 28.0371V18.2185ZM42.8017 41.4653C42.6895 42.9142 41.4773 44.0597 40 44.0597C38.5226 44.0597 37.3105 42.9144 37.1983 41.4653H42.8017ZM50.7905 25.9873C50.7905 31.9372 45.95 36.7778 40 36.7778C34.05 36.7778 29.2095 31.9372 29.2095 25.9873V20.5623H33.8322C36.257 20.5623 38.4481 19.5432 40 17.9105C41.5519 19.5432 43.743 20.5623 46.1678 20.5623H50.7905V25.9873ZM29.3637 41.4653H32.5053C32.6215 45.5 35.9376 48.7472 40.0002 48.7472C44.0627 48.7472 47.3786 45.5002 47.495 41.4653H50.6316C55.2229 41.4653 58.958 45.2005 58.958 49.7918V52.279H21.0373V49.7918C21.0373 45.2006 24.7724 41.4653 29.3637 41.4653ZM40 7.428C45.1449 7.428 49.4575 11.0485 50.5311 15.8747H46.1678C44.0592 15.8747 42.3438 14.1593 42.3438 12.0507H37.6562C37.6562 14.1593 35.9408 15.8747 33.8322 15.8747H29.4689C30.5425 11.0485 34.8551 7.428 40 7.428ZM24.522 28.037C24.522 30.2718 22.7037 32.09 20.4688 32.09V36.7775H28.9148C28.9186 36.7812 28.9223 36.7851 28.9259 36.7889C21.9523 37.0211 16.3498 42.7627 16.3498 49.7918V52.279H4.68752V13.651H25.2101C24.7631 15.0954 24.522 16.6293 24.522 18.2185V28.037ZM4.68752 56.9666H75.3125V61.6548H4.68752V56.9666ZM47.0294 72.572H32.9656V66.3423H47.0294V72.572Z" fill="black"/>
</g>
<defs>
<clipPath id="clip0">
<rect width="80" height="80" fill="white"/>
</clipPath>
</defs>
</svg>
