<svg width="80" height="80" viewBox="0 0 80 80" fill="none" xmlns="http://www.w3.org/2000/svg">
<g clip-path="url(#clip0)">
<path d="M53 23.5L34.25 34.3253L34.25 12.6747L53 23.5Z" fill="#00FA9A"/>
<path d="M31.2109 9.54224V39.9884L57.5781 24.7656L31.2109 9.54224ZM35.8984 17.6611L48.2031 24.7656L35.8984 31.8701V17.6611Z" fill="black"/>
<rect x="12" y="46" width="55" height="11" fill="#00FA9A"/>
<path d="M80 16.7188H70.625V0H9.26453V16.7188H0V68.2812H30.1099L29.4574 71.5442C29.0204 73.7274 27.0874 75.3125 24.8608 75.3125H7.1875V80H72.8125V75.3125H55.1392C52.9126 75.3125 50.9796 73.7274 50.5426 71.5442L49.8901 68.2812H80V16.7188ZM13.952 49.5312H65.9375V54.2188H13.952V49.5312ZM65.9375 4.6875V44.8438H13.952V4.6875H65.9375ZM45.946 72.464C46.1511 73.4882 46.5222 74.4452 47.0258 75.3125H32.9742C33.4778 74.4452 33.8489 73.4882 34.054 72.4634L34.8901 68.2812H45.1099L45.946 72.464ZM75.3125 63.5938H4.6875V21.4062H9.26453V58.9062H70.625V21.4062H75.3125V63.5938Z" fill="black"/>
</g>
<defs>
<clipPath id="clip0">
<rect width="80" height="80" fill="white"/>
</clipPath>
</defs>
</svg>
