<svg width="80" height="80" viewBox="0 0 80 80" fill="none" xmlns="http://www.w3.org/2000/svg">
<circle cx="15" cy="16" r="6" fill="#00FA9A"/>
<circle cx="41" cy="16" r="6" fill="#00FA9A"/>
<circle cx="65" cy="16" r="6" fill="#00FA9A"/>
<path d="M72.3445 21.4087C73.4692 19.9006 74.1358 18.0317 74.1358 16.01C74.1358 11.0197 70.0759 6.96 65.0858 6.96C60.0956 6.96 56.0358 11.0197 56.0358 16.01C56.0358 18.0364 56.7053 19.9095 57.8347 21.4195C55.7047 22.3462 53.8789 23.842 52.5467 25.7136C51.2095 23.835 49.3752 22.3345 47.235 21.4086C48.3597 19.9005 49.0263 18.0316 49.0263 16.0098C49.0263 11.0195 44.9664 6.95984 39.9762 6.95984C34.9861 6.95984 30.9262 11.0195 30.9262 16.0098C30.9262 18.0362 31.5958 19.9094 32.7252 21.4194C30.5994 22.3442 28.7766 23.8359 27.4452 25.7025C26.1087 23.8291 24.2773 22.3328 22.1412 21.4086C23.2659 19.9005 23.9325 18.0316 23.9325 16.0098C23.9325 11.0195 19.8727 6.95984 14.8825 6.95984C9.89234 6.95984 5.8325 11.0195 5.8325 16.0098C5.8325 18.0362 6.50203 19.9094 7.63141 21.4194C3.14578 23.3711 0.0003125 27.8442 0 33.0402V33.0408V42.0414L7.56516 43.51C8.12391 45.2366 8.82141 46.9181 9.64984 48.5352L5.32859 54.9242L14.2678 63.8817L18.0453 67.667L24.4428 63.3589C26.0786 64.2011 27.7808 64.9092 29.53 65.475L30.9984 73.0402H49.0011L50.4695 65.475C52.1958 64.9166 53.8777 64.2187 55.4948 63.3903L61.8839 67.7116L74.6266 54.9947L70.3184 48.5972C71.1605 46.9616 71.8686 45.2591 72.4344 43.51L80 42.0414V33.0406V33.0402C79.9997 27.835 76.8431 23.3548 72.3445 21.4087ZM65.0858 11.6473C67.4912 11.6473 69.4483 13.6042 69.4483 16.0098C69.4483 18.4155 67.4912 20.3723 65.0858 20.3723C62.6803 20.3723 60.7233 18.4155 60.7233 16.0098C60.7233 13.6042 62.6803 11.6473 65.0858 11.6473ZM62.8713 25.0598H67.3317C70.9172 25.0598 73.9578 27.4362 74.9614 30.6969H55.2417C56.2452 27.4362 59.2859 25.0598 62.8713 25.0598ZM39.9764 11.6473C42.3819 11.6473 44.3389 13.6042 44.3389 16.0098C44.3389 18.4155 42.3819 20.3723 39.9764 20.3723C37.5709 20.3723 35.6139 18.4155 35.6139 16.0098C35.6139 13.6042 37.5709 11.6473 39.9764 11.6473ZM37.7619 25.0598H42.2222C45.8077 25.0598 48.8484 27.4362 49.8519 30.6969H30.1323C31.1358 27.4362 34.1764 25.0598 37.7619 25.0598ZM60.0214 35.3844C58.8561 45.3994 50.3223 53.1986 40 53.1986C29.6777 53.1986 21.1439 45.3994 19.9786 35.3844H60.0214ZM14.8827 11.6473C17.2883 11.6473 19.2452 13.6042 19.2452 16.0098C19.2452 18.4155 17.2881 20.3723 14.8827 20.3723C12.4772 20.3723 10.5202 18.4155 10.5202 16.0098C10.5202 13.6042 12.4772 11.6473 14.8827 11.6473ZM12.6683 25.0598H17.1287C20.7142 25.0598 23.7548 27.4362 24.7584 30.6969H5.03859C6.04203 27.4362 9.08281 25.0598 12.6683 25.0598ZM75.3125 38.1764L68.7247 39.4555L68.338 40.8556C67.6916 43.1966 66.7523 45.4545 65.5462 47.5664L64.8244 48.8305L68.5797 54.407L61.3086 61.6633L55.7392 57.8966L54.4737 58.6158C52.3756 59.8083 50.1352 60.7377 47.815 61.3784L46.4148 61.7652L45.1361 68.3528H34.8636L33.5848 61.7652L32.1848 61.3784C29.8438 60.7319 27.5858 59.7927 25.4737 58.5866L24.2098 57.8648L18.6331 61.6201L17.5858 60.5708L11.3767 54.3492L15.1436 48.7797L14.4244 47.5142C13.2322 45.4162 12.3027 43.1759 11.6619 40.8555L11.2752 39.4555L4.6875 38.1764V35.3844H15.2655C16.4508 47.9891 27.0906 57.8861 40 57.8861C52.9094 57.8861 63.5492 47.9891 64.7345 35.3844H75.3125V38.1764Z" fill="black"/>
</svg>
