<?xml version="1.0" encoding="utf-8"?>
<!-- Generator: Adobe Illustrator 24.0.2, SVG Export Plug-In . SVG Version: 6.00 Build 0)  -->
<svg version="1.1" id="Слой_1" xmlns="http://www.w3.org/2000/svg" xmlns:xlink="http://www.w3.org/1999/xlink" x="0px" y="0px"
	 viewBox="0 0 527 202" style="enable-background:new 0 0 527 202;" xml:space="preserve">
<style type="text/css">
	.st0{fill:none;stroke:#000000;stroke-width:6;stroke-linecap:round;stroke-linejoin:round;}
	.st1{fill:#00FA9A;stroke:#000000;stroke-width:6;stroke-linecap:round;stroke-linejoin:round;}
	.st2{fill:#FFFFFF;stroke:#000000;stroke-width:6;stroke-linecap:round;stroke-linejoin:round;}
</style>
<rect x="3.6" y="31.9" class="st0" width="487.7" height="75.9"/>
<rect x="32.5" y="3" class="st1" width="491.4" height="75.9"/>
<path class="st0" d="M3.6,31.9L32.5,3"/>
<path class="st0" d="M5.2,107.8l28.9-28.9"/>
<path class="st0" d="M491.3,107.8l31.9-28.9"/>
<rect x="3.6" y="122.2" class="st0" width="487.7" height="75.9"/>
<rect x="32.5" y="93.3" class="st2" width="491.4" height="75.9"/>
<path class="st0" d="M3.6,122.2l28.9-28.9"/>
<path class="st0" d="M5.2,198l28.9-28.9"/>
<path class="st0" d="M491.3,198l31.9-28.9"/>
<g>
	<path d="M68.6,48.7c-0.7,0-1.4-0.1-2-0.4C66,48,65.4,47.6,65,47.1s-0.8-1.2-1.1-1.9c-0.3-0.8-0.4-1.6-0.4-2.6
		c0-0.9,0.1-1.8,0.4-2.6c0.3-0.8,0.6-1.4,1.1-1.9c0.5-0.5,1-0.9,1.7-1.2c0.6-0.3,1.4-0.4,2.1-0.4c0.7,0,1.3,0.1,1.9,0.4
		c0.5,0.3,1,0.6,1.3,1l-0.8,1c-0.3-0.3-0.7-0.6-1-0.8c-0.4-0.2-0.8-0.3-1.3-0.3c-0.6,0-1.1,0.1-1.5,0.3s-0.9,0.5-1.2,1
		c-0.3,0.4-0.6,0.9-0.8,1.5c-0.2,0.6-0.3,1.2-0.3,2c0,0.7,0.1,1.4,0.3,2c0.2,0.6,0.4,1.1,0.8,1.5c0.3,0.4,0.7,0.7,1.2,1
		s1,0.3,1.5,0.3c0.5,0,1-0.1,1.4-0.3c0.4-0.2,0.8-0.6,1.2-1l0.8,0.9c-0.5,0.5-1,1-1.6,1.3C70.1,48.6,69.4,48.7,68.6,48.7z"/>
	<path d="M74.8,48.5v-8.7h7.5v8.7h-1.5v-7.5h-4.5v7.5H74.8z"/>
	<path d="M85.6,52.2V39.7h1.2l0.1,1.1H87c0.4-0.4,0.9-0.7,1.4-1c0.5-0.3,1.1-0.4,1.6-0.4c0.6,0,1.1,0.1,1.6,0.3
		c0.4,0.2,0.8,0.5,1.1,0.9c0.3,0.4,0.5,0.9,0.7,1.4c0.2,0.5,0.2,1.2,0.2,1.8c0,0.7-0.1,1.4-0.3,2c-0.2,0.6-0.5,1.1-0.9,1.5
		c-0.4,0.4-0.8,0.7-1.3,0.9c-0.5,0.2-1,0.3-1.5,0.3c-0.4,0-0.8-0.1-1.3-0.3c-0.5-0.2-0.9-0.5-1.3-0.8H87l0.1,1.7v3H85.6z M89.4,47.5
		c0.8,0,1.4-0.3,1.9-0.9c0.5-0.6,0.8-1.5,0.8-2.6c0-0.5,0-0.9-0.1-1.3s-0.2-0.7-0.4-1c-0.2-0.3-0.5-0.5-0.8-0.7
		c-0.3-0.2-0.7-0.2-1.1-0.2c-0.4,0-0.8,0.1-1.2,0.3c-0.4,0.2-0.9,0.5-1.3,1v4.4c0.4,0.4,0.8,0.6,1.3,0.8
		C88.7,47.4,89.1,47.5,89.4,47.5z"/>
	<path d="M100.1,48.7c-0.6,0-1.1-0.1-1.6-0.3c-0.5-0.2-1-0.5-1.4-0.9c-0.4-0.4-0.7-0.9-0.9-1.4c-0.2-0.6-0.4-1.2-0.4-1.9
		c0-0.7,0.1-1.4,0.4-2c0.2-0.6,0.5-1.1,0.9-1.4s0.9-0.7,1.4-0.9c0.5-0.2,1.1-0.3,1.6-0.3c0.6,0,1.1,0.1,1.6,0.3
		c0.5,0.2,1,0.5,1.4,0.9s0.7,0.9,0.9,1.4c0.2,0.6,0.4,1.2,0.4,2c0,0.7-0.1,1.4-0.4,1.9c-0.2,0.6-0.5,1.1-0.9,1.4
		c-0.4,0.4-0.9,0.7-1.4,0.9C101.2,48.6,100.7,48.7,100.1,48.7z M100.1,47.5c0.4,0,0.8-0.1,1.1-0.2s0.6-0.4,0.9-0.7
		c0.2-0.3,0.4-0.6,0.6-1.1c0.1-0.4,0.2-0.9,0.2-1.4s-0.1-1-0.2-1.4c-0.1-0.4-0.3-0.8-0.6-1.1c-0.2-0.3-0.5-0.5-0.9-0.7
		s-0.7-0.2-1.1-0.2S99.3,40.8,99,41c-0.3,0.2-0.6,0.4-0.9,0.7c-0.2,0.3-0.4,0.7-0.6,1.1c-0.1,0.4-0.2,0.9-0.2,1.4s0.1,1,0.2,1.4
		c0.1,0.4,0.3,0.8,0.6,1.1c0.2,0.3,0.5,0.5,0.9,0.7C99.3,47.4,99.7,47.5,100.1,47.5z"/>
	<path d="M111.1,48.7c-0.7,0-1.3-0.1-1.8-0.4s-1-0.6-1.3-1.1c-0.4-0.5-0.6-1.1-0.8-1.7c-0.2-0.7-0.3-1.5-0.3-2.3
		c0-1.5,0.1-2.6,0.4-3.5c0.3-0.9,0.6-1.6,1.1-2.1c0.5-0.5,1.1-0.9,1.8-1.1c0.7-0.2,1.5-0.4,2.3-0.6c0.3,0,0.5-0.1,0.7-0.1
		c0.2,0,0.3-0.1,0.5-0.1s0.3-0.1,0.4-0.1c0.1,0,0.2-0.1,0.4-0.2l0.3,1.4c-0.2,0.2-0.5,0.3-0.8,0.4s-0.7,0.1-1.1,0.2
		c-0.7,0.1-1.3,0.2-1.8,0.4s-1,0.3-1.3,0.6c-0.4,0.3-0.6,0.7-0.8,1.2c-0.2,0.5-0.3,1.2-0.4,2.1c0.4-0.5,0.9-0.8,1.4-1.1
		c0.5-0.2,1.1-0.4,1.7-0.4c0.5,0,1,0.1,1.5,0.3s0.8,0.5,1.1,0.8s0.6,0.8,0.7,1.3c0.2,0.5,0.3,1.1,0.3,1.7c0,0.7-0.1,1.3-0.3,1.9
		c-0.2,0.6-0.5,1-0.8,1.4c-0.4,0.4-0.8,0.7-1.3,0.9C112.2,48.6,111.7,48.7,111.1,48.7z M111.1,47.5c0.8,0,1.4-0.3,1.8-0.9
		c0.4-0.6,0.6-1.4,0.6-2.4c0-0.9-0.2-1.6-0.6-2.2c-0.4-0.5-1-0.8-1.8-0.8c-0.5,0-0.9,0.1-1.4,0.3c-0.5,0.2-0.9,0.6-1.4,1.3v0.7
		c0,0.6,0.1,1.1,0.2,1.6c0.1,0.5,0.3,0.9,0.5,1.3s0.5,0.6,0.9,0.8S110.6,47.5,111.1,47.5z"/>
	<path d="M118.7,52.2c-0.4,0-0.8-0.1-1.2-0.2l0.3-1.2c0.1,0,0.2,0.1,0.4,0.1c0.1,0,0.3,0,0.4,0c0.6,0,1.1-0.2,1.5-0.5
		s0.7-0.8,0.9-1.3l0.3-0.6l-4.1-8.8h1.5l2.1,4.8c0.2,0.4,0.3,0.8,0.5,1.2c0.2,0.4,0.4,0.9,0.5,1.3h0.1c0.2-0.4,0.3-0.8,0.5-1.3
		s0.3-0.9,0.5-1.3l1.9-4.8h1.4l-3.9,9.5c-0.2,0.4-0.4,0.8-0.6,1.2c-0.2,0.4-0.5,0.7-0.8,1s-0.6,0.5-1,0.6
		C119.6,52.2,119.2,52.2,118.7,52.2z"/>
	<path d="M128.9,48.5v-8.7h1.4v3.6c0,0.5,0,1-0.1,1.5c0,0.6-0.1,1.1-0.1,1.7h0.1c0.2-0.3,0.4-0.6,0.6-0.9c0.2-0.3,0.4-0.7,0.6-0.9
		l3.3-5h1.4v8.7h-1.4v-3.6c0-0.5,0-1,0.1-1.5c0-0.6,0.1-1.1,0.1-1.7h-0.1c-0.2,0.3-0.4,0.6-0.6,0.9c-0.2,0.4-0.4,0.7-0.6,0.9l-3.3,5
		H128.9z M132.7,38.2c-0.5,0-0.9-0.1-1.3-0.2c-0.3-0.1-0.6-0.3-0.9-0.6c-0.2-0.2-0.4-0.5-0.5-0.9c-0.1-0.3-0.2-0.7-0.2-1l1.2-0.1
		c0,0.3,0,0.5,0.1,0.7c0.1,0.2,0.1,0.4,0.3,0.6c0.1,0.2,0.3,0.3,0.5,0.4c0.2,0.1,0.4,0.2,0.7,0.2c0.3,0,0.5-0.1,0.7-0.2
		c0.2-0.1,0.4-0.2,0.5-0.4s0.2-0.4,0.3-0.6c0.1-0.2,0.1-0.5,0.1-0.7l1.2,0.1c0,0.3-0.1,0.7-0.2,1c-0.1,0.3-0.3,0.6-0.5,0.9
		c-0.2,0.2-0.5,0.4-0.9,0.6C133.6,38.1,133.2,38.2,132.7,38.2z"/>
	<path d="M142.6,48.5v-7.5h-3.5v-1.2h8.4v1.2H144v7.5H142.6z"/>
	<path d="M154.6,48.7c-0.7,0-1.3-0.1-1.8-0.3c-0.6-0.2-1.1-0.5-1.5-0.9c-0.4-0.4-0.8-0.9-1-1.4s-0.4-1.2-0.4-2
		c0-0.7,0.1-1.3,0.4-1.9s0.6-1,1-1.4s0.9-0.7,1.4-0.9c0.5-0.2,1.1-0.3,1.7-0.3c0.6,0,1.2,0.1,1.7,0.3c0.5,0.2,0.9,0.5,1.3,0.8
		c0.3,0.4,0.6,0.8,0.8,1.3c0.2,0.5,0.3,1.1,0.3,1.7c0,0.2,0,0.3,0,0.5c0,0.2,0,0.3-0.1,0.4h-6.9c0.1,1,0.5,1.7,1.1,2.2
		c0.6,0.5,1.4,0.7,2.3,0.7c0.5,0,1-0.1,1.4-0.2c0.4-0.1,0.8-0.4,1.2-0.6l0.5,1c-0.4,0.3-0.9,0.5-1.5,0.7
		C156,48.6,155.4,48.7,154.6,48.7z M154.4,40.7c-0.4,0-0.7,0.1-1,0.2c-0.3,0.1-0.6,0.3-0.9,0.5c-0.3,0.2-0.5,0.5-0.7,0.8
		c-0.2,0.3-0.3,0.7-0.4,1.2h5.6c-0.1-0.9-0.3-1.6-0.8-2S155.2,40.7,154.4,40.7z"/>
	<path d="M175,48.5v-7.5h-3.5v-1.2h8.4v1.2h-3.5v7.5H175z"/>
	<path d="M187,48.7c-0.7,0-1.3-0.1-1.8-0.3c-0.6-0.2-1.1-0.5-1.5-0.9c-0.4-0.4-0.8-0.9-1-1.4s-0.4-1.2-0.4-2c0-0.7,0.1-1.3,0.4-1.9
		s0.6-1,1-1.4s0.9-0.7,1.4-0.9c0.5-0.2,1.1-0.3,1.7-0.3c0.6,0,1.2,0.1,1.7,0.3c0.5,0.2,0.9,0.5,1.3,0.8c0.3,0.4,0.6,0.8,0.8,1.3
		c0.2,0.5,0.3,1.1,0.3,1.7c0,0.2,0,0.3,0,0.5c0,0.2,0,0.3-0.1,0.4h-6.9c0.1,1,0.5,1.7,1.1,2.2c0.6,0.5,1.4,0.7,2.3,0.7
		c0.5,0,1-0.1,1.4-0.2c0.4-0.1,0.8-0.4,1.2-0.6l0.5,1c-0.4,0.3-0.9,0.5-1.5,0.7C188.4,48.6,187.8,48.7,187,48.7z M186.8,40.7
		c-0.4,0-0.7,0.1-1,0.2c-0.3,0.1-0.6,0.3-0.9,0.5c-0.3,0.2-0.5,0.5-0.7,0.8c-0.2,0.3-0.3,0.7-0.4,1.2h5.6c-0.1-0.9-0.3-1.6-0.8-2
		S187.6,40.7,186.8,40.7z"/>
	<path d="M198.1,48.7c-0.7,0-1.3-0.1-1.9-0.3c-0.6-0.2-1.1-0.5-1.5-0.9c-0.4-0.4-0.8-0.9-1-1.4s-0.4-1.2-0.4-1.9
		c0-0.7,0.1-1.4,0.4-2c0.3-0.6,0.6-1.1,1.1-1.4s1-0.7,1.6-0.9c0.6-0.2,1.2-0.3,1.9-0.3c0.7,0,1.3,0.1,1.9,0.4s1,0.6,1.3,0.9l-0.7,1
		c-0.4-0.3-0.7-0.6-1.1-0.7c-0.4-0.2-0.8-0.3-1.3-0.3c-0.5,0-1,0.1-1.4,0.2s-0.8,0.4-1.1,0.7c-0.3,0.3-0.5,0.7-0.7,1.1
		c-0.2,0.4-0.3,0.9-0.3,1.4s0.1,1,0.2,1.4c0.2,0.4,0.4,0.8,0.7,1.1c0.3,0.3,0.6,0.5,1.1,0.7s0.9,0.2,1.4,0.2c0.5,0,1-0.1,1.5-0.3
		c0.5-0.2,0.9-0.5,1.2-0.8l0.7,1c-0.5,0.4-1,0.8-1.6,1S198.8,48.7,198.1,48.7z"/>
	<path d="M207.4,48.5v-7.5h-3.5v-1.2h8.4v1.2h-3.5v7.5H207.4z"/>
	<path d="M218.9,48.7c-0.6,0-1.1-0.1-1.6-0.3c-0.5-0.2-1-0.5-1.4-0.9c-0.4-0.4-0.7-0.9-0.9-1.4c-0.2-0.6-0.4-1.2-0.4-1.9
		c0-0.7,0.1-1.4,0.4-2c0.2-0.6,0.5-1.1,0.9-1.4s0.9-0.7,1.4-0.9c0.5-0.2,1.1-0.3,1.6-0.3c0.6,0,1.1,0.1,1.6,0.3
		c0.5,0.2,1,0.5,1.4,0.9s0.7,0.9,0.9,1.4c0.2,0.6,0.4,1.2,0.4,2c0,0.7-0.1,1.4-0.4,1.9c-0.2,0.6-0.5,1.1-0.9,1.4
		c-0.4,0.4-0.9,0.7-1.4,0.9C220,48.6,219.5,48.7,218.9,48.7z M218.9,47.5c0.4,0,0.8-0.1,1.1-0.2s0.6-0.4,0.9-0.7
		c0.2-0.3,0.4-0.6,0.6-1.1c0.1-0.4,0.2-0.9,0.2-1.4s-0.1-1-0.2-1.4c-0.1-0.4-0.3-0.8-0.6-1.1c-0.2-0.3-0.5-0.5-0.9-0.7
		s-0.7-0.2-1.1-0.2s-0.8,0.1-1.1,0.2c-0.3,0.2-0.6,0.4-0.9,0.7c-0.2,0.3-0.4,0.7-0.6,1.1c-0.1,0.4-0.2,0.9-0.2,1.4s0.1,1,0.2,1.4
		c0.1,0.4,0.3,0.8,0.6,1.1c0.2,0.3,0.5,0.5,0.9,0.7C218.1,47.4,218.5,47.5,218.9,47.5z"/>
	<path d="M226.2,48.5v-8.7h4c0.5,0,1,0,1.4,0.1c0.4,0.1,0.8,0.2,1.1,0.4s0.5,0.4,0.7,0.7c0.2,0.3,0.3,0.6,0.3,1
		c0,0.5-0.1,0.9-0.4,1.2c-0.3,0.3-0.6,0.5-1.1,0.7v0.1c0.3,0.1,0.5,0.1,0.7,0.3s0.4,0.2,0.6,0.4c0.2,0.2,0.3,0.4,0.4,0.6
		c0.1,0.2,0.2,0.5,0.2,0.8c0,0.4-0.1,0.8-0.3,1.1c-0.2,0.3-0.4,0.6-0.8,0.8c-0.3,0.2-0.7,0.4-1.2,0.5c-0.4,0.1-0.9,0.1-1.5,0.1
		H226.2z M227.6,43.4h2.3c0.8,0,1.4-0.1,1.7-0.3c0.3-0.2,0.5-0.5,0.5-0.9c0-0.4-0.2-0.7-0.5-0.9c-0.3-0.2-0.9-0.3-1.6-0.3h-2.4V43.4
		z M227.6,47.3h2.6c0.8,0,1.4-0.1,1.8-0.3c0.4-0.2,0.6-0.6,0.6-1.1c0-0.9-0.8-1.4-2.4-1.4h-2.5V47.3z"/>
	<path d="M236.9,48.5v-8.7h1.4v3.6c0,0.5,0,1-0.1,1.5c0,0.6-0.1,1.1-0.1,1.7h0.1c0.2-0.3,0.4-0.6,0.6-0.9c0.2-0.3,0.4-0.7,0.6-0.9
		l3.3-5h1.4v8.7h-1.4v-3.6c0-0.5,0-1,0.1-1.5c0-0.6,0.1-1.1,0.1-1.7h-0.1c-0.2,0.3-0.4,0.6-0.6,0.9c-0.2,0.4-0.4,0.7-0.6,0.9l-3.3,5
		H236.9z"/>
	<path d="M247.7,48.5v-8.7h1.4v3.6c0,0.5,0,1-0.1,1.5c0,0.6-0.1,1.1-0.1,1.7h0.1c0.2-0.3,0.4-0.6,0.6-0.9c0.2-0.3,0.4-0.7,0.6-0.9
		l3.3-5h1.4v8.7h-1.4v-3.6c0-0.5,0-1,0.1-1.5c0-0.6,0.1-1.1,0.1-1.7h-0.1c-0.2,0.3-0.4,0.6-0.6,0.9c-0.2,0.4-0.4,0.7-0.6,0.9l-3.3,5
		H247.7z M251.5,38.2c-0.5,0-0.9-0.1-1.3-0.2c-0.3-0.1-0.6-0.3-0.9-0.6c-0.2-0.2-0.4-0.5-0.5-0.9c-0.1-0.3-0.2-0.7-0.2-1l1.2-0.1
		c0,0.3,0,0.5,0.1,0.7c0.1,0.2,0.1,0.4,0.3,0.6s0.3,0.3,0.5,0.4c0.2,0.1,0.4,0.2,0.7,0.2s0.5-0.1,0.7-0.2c0.2-0.1,0.4-0.2,0.5-0.4
		s0.2-0.4,0.3-0.6c0.1-0.2,0.1-0.5,0.1-0.7l1.2,0.1c0,0.3-0.1,0.7-0.2,1c-0.1,0.3-0.3,0.6-0.5,0.9c-0.2,0.2-0.5,0.4-0.9,0.6
		C252.4,38.1,252,38.2,251.5,38.2z"/>
	<path d="M269.2,48.5v-8.7h7.5v8.7h-1.5v-7.5h-4.5v7.5H269.2z"/>
	<path d="M284.2,48.7c-0.7,0-1.3-0.1-1.8-0.3c-0.6-0.2-1.1-0.5-1.5-0.9s-0.8-0.9-1-1.4s-0.4-1.2-0.4-2c0-0.7,0.1-1.3,0.4-1.9
		s0.6-1,1-1.4s0.9-0.7,1.4-0.9s1.1-0.3,1.7-0.3c0.6,0,1.2,0.1,1.7,0.3c0.5,0.2,0.9,0.5,1.3,0.8s0.6,0.8,0.8,1.3
		c0.2,0.5,0.3,1.1,0.3,1.7c0,0.2,0,0.3,0,0.5c0,0.2,0,0.3-0.1,0.4H281c0.1,1,0.5,1.7,1.1,2.2c0.6,0.5,1.4,0.7,2.3,0.7
		c0.5,0,1-0.1,1.4-0.2s0.8-0.4,1.2-0.6l0.5,1c-0.4,0.3-0.9,0.5-1.5,0.7C285.6,48.6,284.9,48.7,284.2,48.7z M284,40.7
		c-0.4,0-0.7,0.1-1,0.2c-0.3,0.1-0.6,0.3-0.9,0.5c-0.3,0.2-0.5,0.5-0.7,0.8c-0.2,0.3-0.3,0.7-0.4,1.2h5.6c-0.1-0.9-0.3-1.6-0.8-2
		S284.8,40.7,284,40.7z"/>
	<path d="M290.8,52.2V39.7h1.2l0.1,1.1h0.1c0.4-0.4,0.9-0.7,1.4-1c0.5-0.3,1.1-0.4,1.6-0.4c0.6,0,1.1,0.1,1.6,0.3s0.8,0.5,1.1,0.9
		c0.3,0.4,0.5,0.9,0.7,1.4c0.2,0.5,0.2,1.2,0.2,1.8c0,0.7-0.1,1.4-0.3,2c-0.2,0.6-0.5,1.1-0.9,1.5c-0.4,0.4-0.8,0.7-1.3,0.9
		c-0.5,0.2-1,0.3-1.5,0.3c-0.4,0-0.8-0.1-1.3-0.3c-0.5-0.2-0.9-0.5-1.3-0.8h-0.1l0.1,1.7v3H290.8z M294.6,47.5
		c0.8,0,1.4-0.3,1.9-0.9c0.5-0.6,0.8-1.5,0.8-2.6c0-0.5,0-0.9-0.1-1.3s-0.2-0.7-0.4-1c-0.2-0.3-0.5-0.5-0.8-0.7
		c-0.3-0.2-0.7-0.2-1.1-0.2c-0.4,0-0.8,0.1-1.2,0.3c-0.4,0.2-0.9,0.5-1.3,1v4.4c0.4,0.4,0.8,0.6,1.3,0.8
		C293.9,47.4,294.3,47.5,294.6,47.5z"/>
	<path d="M305.6,48.5v-7.5h-4.1v-1.2h5.5v8.7H305.6z M306.2,37.9c-0.3,0-0.6-0.1-0.8-0.3c-0.2-0.2-0.3-0.5-0.3-0.8s0.1-0.6,0.3-0.8
		c0.2-0.2,0.5-0.3,0.8-0.3s0.6,0.1,0.8,0.3c0.2,0.2,0.3,0.5,0.3,0.8s-0.1,0.6-0.3,0.8C306.8,37.8,306.5,37.9,306.2,37.9z"/>
	<path d="M316.1,48.7c-0.6,0-1.1-0.1-1.6-0.3c-0.5-0.2-1-0.5-1.4-0.9c-0.4-0.4-0.7-0.9-0.9-1.4c-0.2-0.6-0.4-1.2-0.4-1.9
		c0-0.7,0.1-1.4,0.4-2c0.2-0.6,0.5-1.1,0.9-1.4c0.4-0.4,0.9-0.7,1.4-0.9c0.5-0.2,1.1-0.3,1.6-0.3c0.6,0,1.1,0.1,1.6,0.3
		c0.5,0.2,1,0.5,1.4,0.9c0.4,0.4,0.7,0.9,0.9,1.4c0.2,0.6,0.4,1.2,0.4,2c0,0.7-0.1,1.4-0.4,1.9c-0.2,0.6-0.5,1.1-0.9,1.4
		c-0.4,0.4-0.9,0.7-1.4,0.9C317.2,48.6,316.7,48.7,316.1,48.7z M316.1,47.5c0.4,0,0.8-0.1,1.1-0.2s0.6-0.4,0.9-0.7
		c0.2-0.3,0.4-0.6,0.6-1.1c0.1-0.4,0.2-0.9,0.2-1.4s-0.1-1-0.2-1.4c-0.1-0.4-0.3-0.8-0.6-1.1c-0.2-0.3-0.5-0.5-0.9-0.7
		s-0.7-0.2-1.1-0.2c-0.4,0-0.8,0.1-1.1,0.2s-0.6,0.4-0.9,0.7c-0.2,0.3-0.4,0.7-0.6,1.1s-0.2,0.9-0.2,1.4s0.1,1,0.2,1.4
		c0.1,0.4,0.3,0.8,0.6,1.1c0.2,0.3,0.5,0.5,0.9,0.7S315.7,47.5,316.1,47.5z"/>
	<path d="M322.4,51.6l-0.2-3.4v-0.9h0.4c0.1-0.1,0.2-0.2,0.4-0.3s0.2-0.3,0.3-0.6c0.1-0.3,0.2-0.6,0.3-1.1c0.1-0.4,0.2-1,0.3-1.7
		l0.5-3.9h5.9v7.5h1.3v0.9l-0.2,3.4h-1.3v-3.1h-6.4v3.1H322.4z M325.2,43.9c-0.1,0.9-0.2,1.6-0.4,2.1s-0.4,1-0.6,1.3h4.5v-6.3h-3.2
		L325.2,43.9z"/>
	<path d="M337.7,42.3c-0.4,0-0.8-0.1-1-0.4c-0.3-0.3-0.4-0.6-0.4-1.1c0-0.5,0.1-0.8,0.4-1.1c0.3-0.3,0.6-0.4,1-0.4
		c0.4,0,0.8,0.1,1,0.4c0.3,0.3,0.4,0.7,0.4,1.1c0,0.5-0.1,0.8-0.4,1.1C338.5,42.1,338.1,42.3,337.7,42.3z M337.7,48.7
		c-0.4,0-0.8-0.1-1-0.4c-0.3-0.3-0.4-0.6-0.4-1.1s0.1-0.8,0.4-1.1c0.3-0.3,0.6-0.4,1-0.4c0.4,0,0.8,0.1,1,0.4
		c0.3,0.3,0.4,0.7,0.4,1.1s-0.1,0.8-0.4,1.1C338.5,48.6,338.1,48.7,337.7,48.7z"/>
</g>
<g>
	<path d="M354,29.2c1.6-1.9,3.6-2.8,6.2-2.8s4.6,0.9,6.2,2.8c1.6,1.9,2.3,4.7,2.3,8.5c0,3.8-0.8,6.6-2.3,8.4
		c-1.6,1.9-3.6,2.8-6.2,2.8s-4.6-0.9-6.2-2.8c-1.6-1.9-2.3-4.7-2.3-8.4C351.7,33.9,352.5,31,354,29.2z M360.2,44.9
		c2.7,0,4-2.4,4-7.3c0-4.9-1.3-7.3-4-7.3c-2.7,0-4,2.4-4,7.3C356.2,42.5,357.5,44.9,360.2,44.9z"/>
	<path d="M381.1,48.5V32.6H394v3.6h-8.6v12.3H381.1z"/>
	<path d="M397.2,32.6h4.2V34h0.8c1-1.2,2.5-1.9,4.5-1.9c2.1,0,3.7,0.8,4.9,2.3c1.2,1.6,1.8,3.6,1.8,6c0,2.5-0.6,4.5-1.8,6
		c-1.2,1.5-2.9,2.3-4.9,2.3c-1.9,0-3.4-0.6-4.3-1.9h-0.8v7.7h-4.3V32.6z M405.3,35.8c-1.3,0-2.2,0.4-2.9,1.3c-0.7,0.9-1,2-1,3.4
		c0,1.4,0.3,2.5,1,3.4c0.7,0.9,1.6,1.4,2.9,1.4c1.2,0,2.2-0.4,2.8-1.3s1-2,1-3.4c0-1.4-0.3-2.5-1-3.4
		C407.4,36.2,406.5,35.8,405.3,35.8z"/>
	<path d="M432.4,48.5h-4.3v-6.4h-6.6v6.4h-4.3V32.6h4.3v6h6.6v-6h4.3V48.5z"/>
</g>
<g>
	<path d="M68.6,134.4c-0.7,0-1.4-0.1-2-0.4c-0.6-0.3-1.2-0.7-1.6-1.2c-0.5-0.5-0.8-1.2-1.1-1.9c-0.3-0.8-0.4-1.6-0.4-2.6
		c0-0.9,0.1-1.8,0.4-2.6c0.3-0.8,0.6-1.4,1.1-1.9c0.5-0.5,1-0.9,1.7-1.2c0.6-0.3,1.4-0.4,2.1-0.4c0.7,0,1.3,0.1,1.9,0.4
		c0.5,0.3,1,0.6,1.3,1l-0.8,1c-0.3-0.3-0.7-0.6-1-0.8c-0.4-0.2-0.8-0.3-1.3-0.3c-0.6,0-1.1,0.1-1.5,0.3c-0.5,0.2-0.9,0.5-1.2,1
		c-0.3,0.4-0.6,0.9-0.8,1.5c-0.2,0.6-0.3,1.2-0.3,2c0,0.7,0.1,1.4,0.3,2c0.2,0.6,0.4,1.1,0.8,1.5c0.3,0.4,0.7,0.7,1.2,1
		c0.5,0.2,1,0.3,1.5,0.3c0.5,0,1-0.1,1.4-0.3c0.4-0.2,0.8-0.6,1.2-1l0.8,0.9c-0.5,0.5-1,1-1.6,1.3C70.1,134.3,69.4,134.4,68.6,134.4
		z"/>
	<path d="M74.8,134.2v-8.7h7.5v8.7h-1.5v-7.5h-4.5v7.5H74.8z"/>
	<path d="M85.6,137.9v-12.4h1.2l0.1,1.1H87c0.4-0.4,0.9-0.7,1.4-1c0.5-0.3,1.1-0.4,1.6-0.4c0.6,0,1.1,0.1,1.6,0.3
		c0.4,0.2,0.8,0.5,1.1,0.9s0.5,0.9,0.7,1.4c0.2,0.5,0.2,1.2,0.2,1.8c0,0.7-0.1,1.4-0.3,2c-0.2,0.6-0.5,1.1-0.9,1.5
		c-0.4,0.4-0.8,0.7-1.3,0.9c-0.5,0.2-1,0.3-1.5,0.3c-0.4,0-0.8-0.1-1.3-0.3s-0.9-0.5-1.3-0.8H87l0.1,1.7v3H85.6z M89.4,133.2
		c0.8,0,1.4-0.3,1.9-0.9s0.8-1.5,0.8-2.6c0-0.5,0-0.9-0.1-1.3c-0.1-0.4-0.2-0.7-0.4-1c-0.2-0.3-0.5-0.5-0.8-0.7s-0.7-0.2-1.1-0.2
		c-0.4,0-0.8,0.1-1.2,0.3c-0.4,0.2-0.9,0.5-1.3,1v4.4c0.4,0.4,0.8,0.6,1.3,0.8C88.7,133.1,89.1,133.2,89.4,133.2z"/>
	<path d="M100.1,134.4c-0.6,0-1.1-0.1-1.6-0.3c-0.5-0.2-1-0.5-1.4-0.9c-0.4-0.4-0.7-0.9-0.9-1.4c-0.2-0.6-0.4-1.2-0.4-1.9
		c0-0.7,0.1-1.4,0.4-2c0.2-0.6,0.5-1.1,0.9-1.4c0.4-0.4,0.9-0.7,1.4-0.9s1.1-0.3,1.6-0.3c0.6,0,1.1,0.1,1.6,0.3s1,0.5,1.4,0.9
		c0.4,0.4,0.7,0.9,0.9,1.4c0.2,0.6,0.4,1.2,0.4,2c0,0.7-0.1,1.4-0.4,1.9c-0.2,0.6-0.5,1-0.9,1.4c-0.4,0.4-0.9,0.7-1.4,0.9
		C101.2,134.3,100.7,134.4,100.1,134.4z M100.1,133.2c0.4,0,0.8-0.1,1.1-0.2s0.6-0.4,0.9-0.7c0.2-0.3,0.4-0.6,0.6-1.1
		c0.1-0.4,0.2-0.9,0.2-1.4s-0.1-1-0.2-1.4c-0.1-0.4-0.3-0.8-0.6-1.1c-0.2-0.3-0.5-0.5-0.9-0.7s-0.7-0.2-1.1-0.2s-0.8,0.1-1.1,0.2
		c-0.3,0.2-0.6,0.4-0.9,0.7c-0.2,0.3-0.4,0.7-0.6,1.1c-0.1,0.4-0.2,0.9-0.2,1.4s0.1,1,0.2,1.4c0.1,0.4,0.3,0.8,0.6,1.1
		c0.2,0.3,0.5,0.5,0.9,0.7C99.3,133.1,99.7,133.2,100.1,133.2z"/>
	<path d="M111.1,134.4c-0.7,0-1.3-0.1-1.8-0.4s-1-0.6-1.3-1.1c-0.4-0.5-0.6-1.1-0.8-1.7c-0.2-0.7-0.3-1.5-0.3-2.3
		c0-1.5,0.1-2.6,0.4-3.5c0.3-0.9,0.6-1.6,1.1-2.1c0.5-0.5,1.1-0.9,1.8-1.1c0.7-0.2,1.5-0.4,2.3-0.6c0.3,0,0.5-0.1,0.7-0.1
		c0.2,0,0.3-0.1,0.5-0.1s0.3-0.1,0.4-0.1c0.1,0,0.2-0.1,0.4-0.2l0.3,1.4c-0.2,0.2-0.5,0.3-0.8,0.4s-0.7,0.1-1.1,0.2
		c-0.7,0.1-1.3,0.2-1.8,0.4s-1,0.3-1.3,0.6c-0.4,0.3-0.6,0.7-0.8,1.2c-0.2,0.5-0.3,1.2-0.4,2.1c0.4-0.5,0.9-0.8,1.4-1.1
		c0.5-0.2,1.1-0.4,1.7-0.4c0.5,0,1,0.1,1.5,0.3c0.4,0.2,0.8,0.5,1.1,0.8c0.3,0.4,0.6,0.8,0.7,1.3c0.2,0.5,0.3,1.1,0.3,1.7
		c0,0.7-0.1,1.3-0.3,1.9c-0.2,0.6-0.5,1-0.8,1.4c-0.4,0.4-0.8,0.7-1.3,0.9C112.2,134.3,111.7,134.4,111.1,134.4z M111.1,133.2
		c0.8,0,1.4-0.3,1.8-0.9c0.4-0.6,0.6-1.4,0.6-2.4c0-0.9-0.2-1.6-0.6-2.2c-0.4-0.5-1-0.8-1.8-0.8c-0.5,0-0.9,0.1-1.4,0.3
		s-0.9,0.6-1.4,1.3v0.7c0,0.6,0.1,1.1,0.2,1.6c0.1,0.5,0.3,0.9,0.5,1.3c0.2,0.3,0.5,0.6,0.9,0.8
		C110.2,133.1,110.6,133.2,111.1,133.2z"/>
	<path d="M118.7,138c-0.4,0-0.8-0.1-1.2-0.2l0.3-1.2c0.1,0,0.2,0.1,0.4,0.1c0.1,0,0.3,0,0.4,0c0.6,0,1.1-0.2,1.5-0.5
		c0.4-0.4,0.7-0.8,0.9-1.3l0.3-0.6l-4.1-8.8h1.5l2.1,4.8c0.2,0.4,0.3,0.8,0.5,1.2s0.4,0.9,0.5,1.3h0.1c0.2-0.4,0.3-0.8,0.5-1.3
		c0.2-0.4,0.3-0.9,0.5-1.3l1.9-4.8h1.4l-3.9,9.5c-0.2,0.4-0.4,0.8-0.6,1.2c-0.2,0.4-0.5,0.7-0.8,1c-0.3,0.3-0.6,0.5-1,0.6
		C119.6,137.9,119.2,138,118.7,138z"/>
	<path d="M128.9,134.2v-8.7h1.4v3.6c0,0.5,0,1-0.1,1.5s-0.1,1.1-0.1,1.7h0.1c0.2-0.3,0.4-0.6,0.6-0.9c0.2-0.3,0.4-0.7,0.6-0.9l3.3-5
		h1.4v8.7h-1.4v-3.6c0-0.5,0-1,0.1-1.5c0-0.6,0.1-1.1,0.1-1.7h-0.1c-0.2,0.3-0.4,0.6-0.6,0.9c-0.2,0.4-0.4,0.7-0.6,0.9l-3.3,5H128.9
		z M132.7,123.9c-0.5,0-0.9-0.1-1.3-0.2c-0.3-0.1-0.6-0.3-0.9-0.6c-0.2-0.2-0.4-0.5-0.5-0.9c-0.1-0.3-0.2-0.7-0.2-1l1.2-0.1
		c0,0.3,0,0.5,0.1,0.7c0.1,0.2,0.1,0.4,0.3,0.6c0.1,0.2,0.3,0.3,0.5,0.4c0.2,0.1,0.4,0.2,0.7,0.2c0.3,0,0.5-0.1,0.7-0.2
		c0.2-0.1,0.4-0.2,0.5-0.4s0.2-0.4,0.3-0.6c0.1-0.2,0.1-0.5,0.1-0.7l1.2,0.1c0,0.3-0.1,0.7-0.2,1c-0.1,0.3-0.3,0.6-0.5,0.9
		c-0.2,0.2-0.5,0.4-0.9,0.6C133.6,123.8,133.2,123.9,132.7,123.9z"/>
	<path d="M142.6,134.2v-7.5h-3.5v-1.2h8.4v1.2H144v7.5H142.6z"/>
	<path d="M154.6,134.4c-0.7,0-1.3-0.1-1.8-0.3c-0.6-0.2-1.1-0.5-1.5-0.9c-0.4-0.4-0.8-0.9-1-1.4c-0.2-0.6-0.4-1.2-0.4-2
		c0-0.7,0.1-1.3,0.4-1.9c0.2-0.6,0.6-1,1-1.4c0.4-0.4,0.9-0.7,1.4-0.9c0.5-0.2,1.1-0.3,1.7-0.3c0.6,0,1.2,0.1,1.7,0.3
		c0.5,0.2,0.9,0.5,1.3,0.8c0.3,0.4,0.6,0.8,0.8,1.3c0.2,0.5,0.3,1.1,0.3,1.7c0,0.2,0,0.3,0,0.5c0,0.2,0,0.3-0.1,0.4h-6.9
		c0.1,1,0.5,1.7,1.1,2.2c0.6,0.5,1.4,0.7,2.3,0.7c0.5,0,1-0.1,1.4-0.2c0.4-0.1,0.8-0.4,1.2-0.6l0.5,1c-0.4,0.3-0.9,0.5-1.5,0.7
		C156,134.3,155.4,134.4,154.6,134.4z M154.4,126.4c-0.4,0-0.7,0.1-1,0.2s-0.6,0.3-0.9,0.5c-0.3,0.2-0.5,0.5-0.7,0.8
		c-0.2,0.3-0.3,0.7-0.4,1.2h5.6c-0.1-0.9-0.3-1.6-0.8-2C155.8,126.6,155.2,126.4,154.4,126.4z"/>
	<path d="M175,134.2v-7.5h-3.5v-1.2h8.4v1.2h-3.5v7.5H175z"/>
	<path d="M187,134.4c-0.7,0-1.3-0.1-1.8-0.3c-0.6-0.2-1.1-0.5-1.5-0.9c-0.4-0.4-0.8-0.9-1-1.4c-0.2-0.6-0.4-1.2-0.4-2
		c0-0.7,0.1-1.3,0.4-1.9c0.2-0.6,0.6-1,1-1.4c0.4-0.4,0.9-0.7,1.4-0.9c0.5-0.2,1.1-0.3,1.7-0.3c0.6,0,1.2,0.1,1.7,0.3
		c0.5,0.2,0.9,0.5,1.3,0.8c0.3,0.4,0.6,0.8,0.8,1.3c0.2,0.5,0.3,1.1,0.3,1.7c0,0.2,0,0.3,0,0.5c0,0.2,0,0.3-0.1,0.4h-6.9
		c0.1,1,0.5,1.7,1.1,2.2c0.6,0.5,1.4,0.7,2.3,0.7c0.5,0,1-0.1,1.4-0.2c0.4-0.1,0.8-0.4,1.2-0.6l0.5,1c-0.4,0.3-0.9,0.5-1.5,0.7
		C188.4,134.3,187.8,134.4,187,134.4z M186.8,126.4c-0.4,0-0.7,0.1-1,0.2s-0.6,0.3-0.9,0.5c-0.3,0.2-0.5,0.5-0.7,0.8
		c-0.2,0.3-0.3,0.7-0.4,1.2h5.6c-0.1-0.9-0.3-1.6-0.8-2C188.2,126.6,187.6,126.4,186.8,126.4z"/>
	<path d="M198.1,134.4c-0.7,0-1.3-0.1-1.9-0.3c-0.6-0.2-1.1-0.5-1.5-0.9c-0.4-0.4-0.8-0.9-1-1.4c-0.2-0.6-0.4-1.2-0.4-1.9
		c0-0.7,0.1-1.4,0.4-2c0.3-0.6,0.6-1.1,1.1-1.4c0.4-0.4,1-0.7,1.6-0.9c0.6-0.2,1.2-0.3,1.9-0.3c0.7,0,1.3,0.1,1.9,0.4s1,0.6,1.3,0.9
		l-0.7,1c-0.4-0.3-0.7-0.6-1.1-0.7c-0.4-0.2-0.8-0.3-1.3-0.3c-0.5,0-1,0.1-1.4,0.2s-0.8,0.4-1.1,0.7c-0.3,0.3-0.5,0.7-0.7,1.1
		c-0.2,0.4-0.3,0.9-0.3,1.4s0.1,1,0.2,1.4s0.4,0.8,0.7,1.1c0.3,0.3,0.6,0.5,1.1,0.7s0.9,0.2,1.4,0.2c0.5,0,1-0.1,1.5-0.3
		c0.5-0.2,0.9-0.5,1.2-0.8l0.7,1c-0.5,0.4-1,0.8-1.6,1C199.4,134.3,198.8,134.4,198.1,134.4z"/>
	<path d="M207.4,134.2v-7.5h-3.5v-1.2h8.4v1.2h-3.5v7.5H207.4z"/>
	<path d="M218.9,134.4c-0.6,0-1.1-0.1-1.6-0.3c-0.5-0.2-1-0.5-1.4-0.9c-0.4-0.4-0.7-0.9-0.9-1.4c-0.2-0.6-0.4-1.2-0.4-1.9
		c0-0.7,0.1-1.4,0.4-2c0.2-0.6,0.5-1.1,0.9-1.4c0.4-0.4,0.9-0.7,1.4-0.9s1.1-0.3,1.6-0.3c0.6,0,1.1,0.1,1.6,0.3s1,0.5,1.4,0.9
		c0.4,0.4,0.7,0.9,0.9,1.4c0.2,0.6,0.4,1.2,0.4,2c0,0.7-0.1,1.4-0.4,1.9c-0.2,0.6-0.5,1-0.9,1.4c-0.4,0.4-0.9,0.7-1.4,0.9
		C220,134.3,219.5,134.4,218.9,134.4z M218.9,133.2c0.4,0,0.8-0.1,1.1-0.2s0.6-0.4,0.9-0.7c0.2-0.3,0.4-0.6,0.6-1.1
		c0.1-0.4,0.2-0.9,0.2-1.4s-0.1-1-0.2-1.4c-0.1-0.4-0.3-0.8-0.6-1.1c-0.2-0.3-0.5-0.5-0.9-0.7s-0.7-0.2-1.1-0.2s-0.8,0.1-1.1,0.2
		c-0.3,0.2-0.6,0.4-0.9,0.7c-0.2,0.3-0.4,0.7-0.6,1.1c-0.1,0.4-0.2,0.9-0.2,1.4s0.1,1,0.2,1.4c0.1,0.4,0.3,0.8,0.6,1.1
		c0.2,0.3,0.5,0.5,0.9,0.7C218.1,133.1,218.5,133.2,218.9,133.2z"/>
	<path d="M226.2,134.2v-8.7h4c0.5,0,1,0,1.4,0.1c0.4,0.1,0.8,0.2,1.1,0.4s0.5,0.4,0.7,0.7c0.2,0.3,0.3,0.6,0.3,1
		c0,0.5-0.1,0.9-0.4,1.2c-0.3,0.3-0.6,0.5-1.1,0.7v0.1c0.3,0.1,0.5,0.1,0.7,0.3c0.2,0.1,0.4,0.2,0.6,0.4c0.2,0.2,0.3,0.4,0.4,0.6
		s0.2,0.5,0.2,0.8c0,0.4-0.1,0.8-0.3,1.1c-0.2,0.3-0.4,0.6-0.8,0.8c-0.3,0.2-0.7,0.4-1.2,0.5c-0.4,0.1-0.9,0.1-1.5,0.1H226.2z
		 M227.6,129.1h2.3c0.8,0,1.4-0.1,1.7-0.3c0.3-0.2,0.5-0.5,0.5-0.9c0-0.4-0.2-0.7-0.5-0.9c-0.3-0.2-0.9-0.3-1.6-0.3h-2.4V129.1z
		 M227.6,133h2.6c0.8,0,1.4-0.1,1.8-0.3c0.4-0.2,0.6-0.6,0.6-1.1c0-0.9-0.8-1.4-2.4-1.4h-2.5V133z"/>
	<path d="M236.9,134.2v-8.7h1.4v3.6c0,0.5,0,1-0.1,1.5s-0.1,1.1-0.1,1.7h0.1c0.2-0.3,0.4-0.6,0.6-0.9c0.2-0.3,0.4-0.7,0.6-0.9l3.3-5
		h1.4v8.7h-1.4v-3.6c0-0.5,0-1,0.1-1.5c0-0.6,0.1-1.1,0.1-1.7h-0.1c-0.2,0.3-0.4,0.6-0.6,0.9c-0.2,0.4-0.4,0.7-0.6,0.9l-3.3,5H236.9
		z"/>
	<path d="M247.7,134.2v-8.7h1.4v3.6c0,0.5,0,1-0.1,1.5c0,0.6-0.1,1.1-0.1,1.7h0.1c0.2-0.3,0.4-0.6,0.6-0.9s0.4-0.7,0.6-0.9l3.3-5
		h1.4v8.7h-1.4v-3.6c0-0.5,0-1,0.1-1.5c0-0.6,0.1-1.1,0.1-1.7h-0.1c-0.2,0.3-0.4,0.6-0.6,0.9c-0.2,0.4-0.4,0.7-0.6,0.9l-3.3,5H247.7
		z M251.5,123.9c-0.5,0-0.9-0.1-1.3-0.2c-0.3-0.1-0.6-0.3-0.9-0.6c-0.2-0.2-0.4-0.5-0.5-0.9c-0.1-0.3-0.2-0.7-0.2-1l1.2-0.1
		c0,0.3,0,0.5,0.1,0.7c0.1,0.2,0.1,0.4,0.3,0.6s0.3,0.3,0.5,0.4c0.2,0.1,0.4,0.2,0.7,0.2s0.5-0.1,0.7-0.2c0.2-0.1,0.4-0.2,0.5-0.4
		s0.2-0.4,0.3-0.6c0.1-0.2,0.1-0.5,0.1-0.7l1.2,0.1c0,0.3-0.1,0.7-0.2,1c-0.1,0.3-0.3,0.6-0.5,0.9c-0.2,0.2-0.5,0.4-0.9,0.6
		C252.4,123.8,252,123.9,251.5,123.9z"/>
	<path d="M269.2,134.2v-8.7h7.5v8.7h-1.5v-7.5h-4.5v7.5H269.2z"/>
	<path d="M284.2,134.4c-0.7,0-1.3-0.1-1.8-0.3c-0.6-0.2-1.1-0.5-1.5-0.9c-0.4-0.4-0.8-0.9-1-1.4c-0.2-0.6-0.4-1.2-0.4-2
		c0-0.7,0.1-1.3,0.4-1.9c0.2-0.6,0.6-1,1-1.4c0.4-0.4,0.9-0.7,1.4-0.9s1.1-0.3,1.7-0.3c0.6,0,1.2,0.1,1.7,0.3
		c0.5,0.2,0.9,0.5,1.3,0.8c0.3,0.4,0.6,0.8,0.8,1.3c0.2,0.5,0.3,1.1,0.3,1.7c0,0.2,0,0.3,0,0.5s0,0.3-0.1,0.4H281
		c0.1,1,0.5,1.7,1.1,2.2c0.6,0.5,1.4,0.7,2.3,0.7c0.5,0,1-0.1,1.4-0.2c0.4-0.1,0.8-0.4,1.2-0.6l0.5,1c-0.4,0.3-0.9,0.5-1.5,0.7
		C285.6,134.3,284.9,134.4,284.2,134.4z M284,126.4c-0.4,0-0.7,0.1-1,0.2c-0.3,0.1-0.6,0.3-0.9,0.5c-0.3,0.2-0.5,0.5-0.7,0.8
		c-0.2,0.3-0.3,0.7-0.4,1.2h5.6c-0.1-0.9-0.3-1.6-0.8-2C285.4,126.6,284.8,126.4,284,126.4z"/>
	<path d="M290.8,137.9v-12.4h1.2l0.1,1.1h0.1c0.4-0.4,0.9-0.7,1.4-1c0.5-0.3,1.1-0.4,1.6-0.4c0.6,0,1.1,0.1,1.6,0.3s0.8,0.5,1.1,0.9
		s0.5,0.9,0.7,1.4c0.2,0.5,0.2,1.2,0.2,1.8c0,0.7-0.1,1.4-0.3,2c-0.2,0.6-0.5,1.1-0.9,1.5c-0.4,0.4-0.8,0.7-1.3,0.9
		c-0.5,0.2-1,0.3-1.5,0.3c-0.4,0-0.8-0.1-1.3-0.3c-0.5-0.2-0.9-0.5-1.3-0.8h-0.1l0.1,1.7v3H290.8z M294.6,133.2
		c0.8,0,1.4-0.3,1.9-0.9c0.5-0.6,0.8-1.5,0.8-2.6c0-0.5,0-0.9-0.1-1.3c-0.1-0.4-0.2-0.7-0.4-1c-0.2-0.3-0.5-0.5-0.8-0.7
		s-0.7-0.2-1.1-0.2c-0.4,0-0.8,0.1-1.2,0.3c-0.4,0.2-0.9,0.5-1.3,1v4.4c0.4,0.4,0.8,0.6,1.3,0.8
		C293.9,133.1,294.3,133.2,294.6,133.2z"/>
	<path d="M305.6,134.2v-7.5h-4.1v-1.2h5.5v8.7H305.6z M306.2,123.6c-0.3,0-0.6-0.1-0.8-0.3c-0.2-0.2-0.3-0.5-0.3-0.8
		c0-0.3,0.1-0.6,0.3-0.8c0.2-0.2,0.5-0.3,0.8-0.3s0.6,0.1,0.8,0.3c0.2,0.2,0.3,0.5,0.3,0.8c0,0.3-0.1,0.6-0.3,0.8
		C306.8,123.5,306.5,123.6,306.2,123.6z"/>
	<path d="M316.1,134.4c-0.6,0-1.1-0.1-1.6-0.3c-0.5-0.2-1-0.5-1.4-0.9c-0.4-0.4-0.7-0.9-0.9-1.4c-0.2-0.6-0.4-1.2-0.4-1.9
		c0-0.7,0.1-1.4,0.4-2c0.2-0.6,0.5-1.1,0.9-1.4c0.4-0.4,0.9-0.7,1.4-0.9c0.5-0.2,1.1-0.3,1.6-0.3c0.6,0,1.1,0.1,1.6,0.3
		c0.5,0.2,1,0.5,1.4,0.9c0.4,0.4,0.7,0.9,0.9,1.4c0.2,0.6,0.4,1.2,0.4,2c0,0.7-0.1,1.4-0.4,1.9c-0.2,0.6-0.5,1-0.9,1.4
		c-0.4,0.4-0.9,0.7-1.4,0.9C317.2,134.3,316.7,134.4,316.1,134.4z M316.1,133.2c0.4,0,0.8-0.1,1.1-0.2s0.6-0.4,0.9-0.7
		c0.2-0.3,0.4-0.6,0.6-1.1c0.1-0.4,0.2-0.9,0.2-1.4s-0.1-1-0.2-1.4c-0.1-0.4-0.3-0.8-0.6-1.1c-0.2-0.3-0.5-0.5-0.9-0.7
		s-0.7-0.2-1.1-0.2c-0.4,0-0.8,0.1-1.1,0.2s-0.6,0.4-0.9,0.7c-0.2,0.3-0.4,0.7-0.6,1.1s-0.2,0.9-0.2,1.4s0.1,1,0.2,1.4
		s0.3,0.8,0.6,1.1c0.2,0.3,0.5,0.5,0.9,0.7S315.7,133.2,316.1,133.2z"/>
	<path d="M322.4,137.3l-0.2-3.4V133h0.4c0.1-0.1,0.2-0.2,0.4-0.3s0.2-0.3,0.3-0.6c0.1-0.3,0.2-0.6,0.3-1.1c0.1-0.4,0.2-1,0.3-1.7
		l0.5-3.9h5.9v7.5h1.3v0.9l-0.2,3.4h-1.3v-3.1h-6.4v3.1H322.4z M325.2,129.6c-0.1,0.9-0.2,1.6-0.4,2.1s-0.4,1-0.6,1.3h4.5v-6.3h-3.2
		L325.2,129.6z"/>
	<path d="M337.7,128c-0.4,0-0.8-0.1-1-0.4c-0.3-0.3-0.4-0.6-0.4-1.1s0.1-0.8,0.4-1.1c0.3-0.3,0.6-0.4,1-0.4c0.4,0,0.8,0.1,1,0.4
		c0.3,0.3,0.4,0.7,0.4,1.1s-0.1,0.8-0.4,1.1C338.5,127.8,338.1,128,337.7,128z M337.7,134.4c-0.4,0-0.8-0.1-1-0.4
		c-0.3-0.3-0.4-0.6-0.4-1.1s0.1-0.8,0.4-1.1c0.3-0.3,0.6-0.4,1-0.4c0.4,0,0.8,0.1,1,0.4c0.3,0.3,0.4,0.7,0.4,1.1s-0.1,0.8-0.4,1.1
		C338.5,134.3,338.1,134.4,337.7,134.4z"/>
</g>
<g>
	<path d="M361.3,120.8c2,0,3.6,0.7,5,2c1.3,1.3,2,3,2,5.1c0,2.2-0.7,4-2.2,5.5c-1.5,1.5-3.4,2.2-5.8,2.2c-2.7,0-4.8-0.9-6.3-2.6
		c-1.5-1.7-2.3-4.5-2.3-8.3c0-3.5,0.7-6.4,2.2-8.5s3.7-3.2,6.6-3.2c1.9,0,3.6,0.5,4.9,1.6c1.4,1.1,2.1,2.5,2.3,4.1h-4.4
		c-0.4-1.4-1.4-2-2.9-2c-1.3,0-2.3,0.5-3.1,1.5c-0.8,1-1.2,2.4-1.3,4.3h0.8C357.8,121.4,359.3,120.8,361.3,120.8z M357.6,130.9
		c0.7,0.7,1.5,1,2.6,1c1.1,0,1.9-0.3,2.6-1c0.7-0.7,1-1.6,1-2.8c0-1.2-0.3-2.1-1-2.8c-0.7-0.7-1.5-1-2.6-1s-2,0.3-2.6,1
		c-0.7,0.6-1,1.6-1,2.8C356.6,129.3,357,130.2,357.6,130.9z"/>
	<path d="M394.3,118.2l-8.7,17H381l8.7-17v-0.8h-10.2v-3.9h14.8V118.2z"/>
	<path d="M399.2,115.9c1.6-1.9,3.6-2.8,6.2-2.8s4.6,0.9,6.2,2.8s2.3,4.7,2.3,8.5c0,3.8-0.8,6.6-2.3,8.4c-1.6,1.9-3.6,2.8-6.2,2.8
		s-4.6-0.9-6.2-2.8c-1.6-1.9-2.3-4.7-2.3-8.4C396.9,120.6,397.6,117.7,399.2,115.9z M405.4,131.6c2.7,0,4-2.4,4-7.3
		c0-4.9-1.3-7.3-4-7.3c-2.7,0-4,2.4-4,7.3C401.4,129.2,402.7,131.6,405.4,131.6z"/>
	<path d="M419.2,115.9c1.6-1.9,3.6-2.8,6.2-2.8s4.6,0.9,6.2,2.8s2.3,4.7,2.3,8.5c0,3.8-0.8,6.6-2.3,8.4c-1.6,1.9-3.6,2.8-6.2,2.8
		s-4.6-0.9-6.2-2.8c-1.6-1.9-2.3-4.7-2.3-8.4C416.9,120.6,417.7,117.7,419.2,115.9z M425.4,131.6c2.7,0,4-2.4,4-7.3
		c0-4.9-1.3-7.3-4-7.3c-2.7,0-4,2.4-4,7.3C421.4,129.2,422.7,131.6,425.4,131.6z"/>
	<path d="M446.3,135.2v-15.9h12.9v3.6h-8.6v12.3H446.3z"/>
	<path d="M462.4,119.3h4.2v1.5h0.8c1-1.2,2.5-1.9,4.5-1.9c2.1,0,3.7,0.8,4.9,2.3s1.8,3.6,1.8,6c0,2.5-0.6,4.5-1.8,6
		s-2.9,2.3-4.9,2.3c-1.9,0-3.4-0.6-4.3-1.9h-0.8v7.7h-4.3V119.3z M470.5,122.5c-1.3,0-2.2,0.4-2.9,1.3c-0.7,0.9-1,2-1,3.4
		c0,1.4,0.3,2.5,1,3.4c0.7,0.9,1.6,1.4,2.9,1.4c1.2,0,2.2-0.4,2.8-1.3s1-2,1-3.4c0-1.4-0.3-2.5-1-3.4
		C472.6,122.9,471.7,122.5,470.5,122.5z"/>
	<path d="M497.6,135.2h-4.3v-6.4h-6.6v6.4h-4.3v-15.9h4.3v6h6.6v-6h4.3V135.2z"/>
</g>
</svg>
