<svg width="640" height="349" viewBox="0 0 640 349" fill="none" xmlns="http://www.w3.org/2000/svg">
<line x1="640" y1="1.5" x2="-4.97383e-07" y2="1.49998" stroke="black" stroke-width="3"/>
<line x1="640" y1="28.1055" x2="-2.29522e-07" y2="28.1054" stroke="black" stroke-width="3"/>
<line x1="640" y1="54.7119" x2="-2.29522e-07" y2="54.7119" stroke="black" stroke-width="3"/>
<line x1="640" y1="81.3184" x2="-4.97383e-07" y2="81.3183" stroke="black" stroke-width="3"/>
<line x1="640" y1="107.924" x2="-2.29522e-07" y2="107.924" stroke="black" stroke-width="3"/>
<line x1="640" y1="134.53" x2="-2.29522e-07" y2="134.53" stroke="black" stroke-width="3"/>
<line x1="640" y1="161.137" x2="-4.97383e-07" y2="161.137" stroke="black" stroke-width="3"/>
<line x1="640" y1="187.743" x2="-2.29522e-07" y2="187.743" stroke="black" stroke-width="3"/>
<line x1="640" y1="214.349" x2="-2.29522e-07" y2="214.349" stroke="black" stroke-width="3"/>
<line x1="640" y1="240.955" x2="-4.97383e-07" y2="240.955" stroke="black" stroke-width="3"/>
<line x1="640" y1="267.562" x2="-2.29522e-07" y2="267.561" stroke="black" stroke-width="3"/>
<line x1="640" y1="294.167" x2="-2.29522e-07" y2="294.167" stroke="black" stroke-width="3"/>
<line x1="640" y1="320.772" x2="-3.6682e-07" y2="320.772" stroke="black" stroke-width="3"/>
<line x1="640" y1="347.379" x2="-2.29522e-07" y2="347.379" stroke="black" stroke-width="3"/>
</svg>
