<?xml version="1.0" encoding="utf-8"?>
<!-- Generator: Adobe Illustrator 24.0.2, SVG Export Plug-In . SVG Version: 6.00 Build 0)  -->
<svg version="1.1" id="Слой_1" xmlns="http://www.w3.org/2000/svg" xmlns:xlink="http://www.w3.org/1999/xlink" x="0px" y="0px"
	 viewBox="0 0 290 108" style="enable-background:new 0 0 290 108;" xml:space="preserve">
<style type="text/css">
	.st0{fill:none;stroke:#000000;stroke-width:3;stroke-linecap:round;stroke-linejoin:round;}
	.st1{fill:#00FA9A;stroke:#000000;stroke-width:3;stroke-linecap:round;stroke-linejoin:round;}
	.st2{fill:#FFFFFF;stroke:#000000;stroke-width:3;stroke-linecap:round;stroke-linejoin:round;}
</style>
<rect x="1.9" y="17.4" class="st0" width="268.7" height="40.5"/>
<rect x="17.8" y="2" class="st1" width="270.6" height="40.5"/>
<path class="st0" d="M1.9,17.4L17.8,2"/>
<path class="st0" d="M2.8,57.9l15.9-15.4"/>
<path class="st0" d="M270.5,57.9L288,42.5"/>
<rect x="1.9" y="65.5" class="st0" width="268.7" height="40.5"/>
<rect x="17.8" y="50.1" class="st2" width="270.6" height="40.5"/>
<path class="st0" d="M1.9,65.5l15.9-15.4"/>
<path class="st0" d="M2.8,106l15.9-15.4"/>
<path class="st0" d="M270.5,106L288,90.6"/>
<path d="M37.6,26c-0.5,0-0.9-0.1-1.4-0.3s-0.8-0.4-1.1-0.8s-0.5-0.8-0.7-1.3s-0.3-1.1-0.3-1.7s0.1-1.2,0.3-1.7s0.4-0.9,0.7-1.3
	s0.7-0.6,1.1-0.8c0.4-0.2,0.9-0.3,1.4-0.3s0.9,0.1,1.2,0.3c0.4,0.2,0.7,0.4,0.9,0.7l-0.6,0.6c-0.2-0.2-0.4-0.4-0.7-0.5
	s-0.6-0.2-0.9-0.2c-0.4,0-0.7,0.1-1,0.2s-0.6,0.4-0.8,0.6c-0.2,0.3-0.4,0.6-0.5,1S35,21.3,35,21.8s0.1,0.9,0.2,1.3
	c0.1,0.4,0.3,0.7,0.5,1s0.5,0.5,0.8,0.6c0.3,0.2,0.7,0.2,1,0.2c0.4,0,0.7-0.1,1-0.2c0.3-0.2,0.6-0.4,0.8-0.6l0.6,0.6
	c-0.3,0.4-0.7,0.6-1.1,0.8C38.6,25.9,38.1,26,37.6,26z M41.7,25.9v-5.8h5v5.8h-1v-5h-3v5C42.7,25.9,41.7,25.9,41.7,25.9z M48.9,28.3
	V20h0.8l0.1,0.7l0,0c0.3-0.3,0.6-0.5,0.9-0.6c0.4-0.2,0.7-0.3,1.1-0.3c0.4,0,0.7,0.1,1,0.2s0.6,0.3,0.8,0.6c0.2,0.3,0.4,0.6,0.5,0.9
	c0.1,0.4,0.2,0.8,0.2,1.2c0,0.5-0.1,0.9-0.2,1.3c-0.1,0.4-0.3,0.7-0.6,1c-0.2,0.3-0.5,0.5-0.8,0.6s-0.7,0.2-1,0.2s-0.6-0.1-0.9-0.2
	c-0.3-0.1-0.6-0.3-0.9-0.6l0,0v1.1v2h-1V28.3z M51.4,25.2c0.5,0,1-0.2,1.3-0.6s0.5-1,0.5-1.7c0-0.3,0-0.6-0.1-0.9s-0.1-0.5-0.3-0.7
	c-0.1-0.2-0.3-0.3-0.5-0.4s-0.5-0.2-0.7-0.2c-0.3,0-0.5,0.1-0.8,0.2s-0.6,0.4-0.9,0.7v2.9c0.3,0.2,0.6,0.4,0.8,0.5
	C51,25.1,51.2,25.2,51.4,25.2z M58.6,26c-0.4,0-0.8-0.1-1.1-0.2s-0.6-0.3-0.9-0.6c-0.3-0.3-0.5-0.6-0.6-1c-0.2-0.4-0.2-0.8-0.2-1.3
	s0.1-0.9,0.2-1.3c0.2-0.4,0.4-0.7,0.6-1s0.6-0.5,0.9-0.6c0.4-0.1,0.7-0.2,1.1-0.2c0.4,0,0.7,0.1,1.1,0.2c0.4,0.1,0.7,0.3,0.9,0.6
	s0.5,0.6,0.6,1c0.2,0.4,0.2,0.8,0.2,1.3s-0.1,0.9-0.2,1.3c-0.2,0.4-0.4,0.7-0.6,1c-0.3,0.3-0.6,0.5-0.9,0.6C59.3,25.9,59,26,58.6,26
	z M58.6,25.2c0.3,0,0.5-0.1,0.8-0.2c0.2-0.1,0.4-0.3,0.6-0.5c0.2-0.2,0.3-0.4,0.4-0.7c0.1-0.3,0.1-0.6,0.1-0.9s0-0.6-0.1-0.9
	s-0.2-0.5-0.4-0.7s-0.4-0.4-0.6-0.5c-0.2-0.1-0.5-0.2-0.8-0.2s-0.5,0.1-0.8,0.2c-0.2,0.1-0.4,0.3-0.6,0.5c-0.2,0.2-0.3,0.4-0.4,0.7
	c-0.1,0.3-0.1,0.6-0.1,0.9s0,0.6,0.1,0.9s0.2,0.5,0.4,0.7s0.4,0.3,0.6,0.5C58,25.1,58.3,25.2,58.6,25.2z M65.9,26
	c-0.4,0-0.8-0.1-1.2-0.3s-0.6-0.4-0.9-0.7c-0.2-0.3-0.4-0.7-0.6-1.2c-0.1-0.5-0.2-1-0.2-1.5c0-1,0.1-1.7,0.3-2.3
	c0.2-0.6,0.4-1.1,0.7-1.4c0.3-0.4,0.7-0.6,1.2-0.8c0.5-0.2,1-0.3,1.5-0.4c0.2,0,0.3,0,0.4-0.1c0.1,0,0.2,0,0.3-0.1
	c0.1,0,0.2,0,0.3-0.1c0.1,0,0.2-0.1,0.3-0.1l0.2,0.9c-0.2,0.1-0.3,0.2-0.6,0.2c-0.2,0-0.5,0.1-0.7,0.1c-0.5,0.1-0.9,0.2-1.2,0.2
	c-0.3,0.1-0.6,0.2-0.9,0.4c-0.2,0.2-0.4,0.5-0.6,0.8c-0.1,0.3-0.2,0.8-0.3,1.4c0.3-0.3,0.6-0.6,0.9-0.7c0.4-0.2,0.7-0.3,1.1-0.3
	s0.7,0.1,1,0.2s0.5,0.3,0.8,0.5c0.2,0.2,0.4,0.5,0.5,0.9c0.1,0.3,0.2,0.7,0.2,1.1c0,0.5-0.1,0.9-0.2,1.3s-0.3,0.7-0.6,1
	c-0.2,0.3-0.5,0.5-0.8,0.6C66.6,25.9,66.3,26,65.9,26z M65.9,25.2c0.5,0,0.9-0.2,1.2-0.6c0.3-0.4,0.4-0.9,0.4-1.6
	c0-0.6-0.1-1.1-0.4-1.4c-0.3-0.4-0.7-0.5-1.2-0.5c-0.3,0-0.6,0.1-0.9,0.2s-0.6,0.4-0.9,0.8v0.4c0,0.4,0,0.8,0.1,1.1
	c0.1,0.3,0.2,0.6,0.3,0.8c0.2,0.2,0.4,0.4,0.6,0.5C65.3,25.1,65.6,25.2,65.9,25.2z M70.9,28.4c-0.3,0-0.5,0-0.8-0.1l0.2-0.8
	c0.1,0,0.2,0,0.3,0.1c0.1,0,0.2,0,0.3,0c0.4,0,0.7-0.1,1-0.4c0.3-0.2,0.5-0.5,0.6-0.9l0.2-0.4L70,20h1l1.4,3.2
	c0.1,0.3,0.2,0.5,0.3,0.8c0.1,0.3,0.3,0.6,0.4,0.9l0,0c0.1-0.3,0.2-0.6,0.3-0.9c0.1-0.3,0.2-0.6,0.3-0.8L75,20h1l-2.6,6.3
	c-0.1,0.3-0.2,0.6-0.4,0.8c-0.1,0.2-0.3,0.5-0.5,0.6c-0.2,0.2-0.4,0.3-0.7,0.4C71.6,28.3,71.3,28.4,70.9,28.4z M77.8,25.9v-5.8h1
	v2.4c0,0.3,0,0.7,0,1c0,0.4,0,0.7-0.1,1.1l0,0c0.1-0.2,0.2-0.4,0.4-0.6c0.1-0.2,0.3-0.4,0.4-0.6l2.2-3.3h0.9v5.8h-1v-2.4
	c0-0.3,0-0.7,0-1c0-0.4,0-0.8,0.1-1.1l0,0c-0.1,0.2-0.2,0.4-0.4,0.6c-0.1,0.2-0.3,0.4-0.4,0.6l-2.2,3.3
	C78.7,25.9,77.8,25.9,77.8,25.9z M80.3,19c-0.3,0-0.6,0-0.9-0.1c-0.2-0.1-0.4-0.2-0.6-0.4c-0.2-0.2-0.3-0.4-0.3-0.6
	s-0.1-0.4-0.1-0.7h0.8c0,0.2,0,0.3,0.1,0.5c0,0.2,0.1,0.3,0.2,0.4s0.2,0.2,0.3,0.3c0.1,0.1,0.3,0.1,0.5,0.1s0.4,0,0.5-0.1
	s0.2-0.2,0.3-0.3c0.1-0.1,0.1-0.2,0.2-0.4c0-0.2,0.1-0.3,0.1-0.5h0.8c0,0.2-0.1,0.5-0.1,0.7c-0.1,0.2-0.2,0.4-0.3,0.6
	c-0.2,0.2-0.3,0.3-0.6,0.4C80.9,18.9,80.6,19,80.3,19z M86.9,25.9v-5h-2.3v-0.8h5.6v0.8h-2.3v5H86.9z M94.9,26
	c-0.4,0-0.9-0.1-1.2-0.2c-0.4-0.1-0.7-0.3-1-0.6c-0.3-0.3-0.5-0.6-0.7-1s-0.2-0.8-0.2-1.3s0.1-0.9,0.2-1.3c0.2-0.4,0.4-0.7,0.7-1
	c0.3-0.3,0.6-0.5,0.9-0.6c0.4-0.1,0.7-0.2,1.1-0.2s0.8,0.1,1.1,0.2c0.3,0.1,0.6,0.3,0.8,0.6c0.2,0.2,0.4,0.5,0.5,0.9
	c0.1,0.3,0.2,0.7,0.2,1.1c0,0.1,0,0.2,0,0.3s0,0.2,0,0.3h-4.6c0.1,0.7,0.3,1.2,0.7,1.5c0.4,0.3,0.9,0.5,1.5,0.5c0.4,0,0.7,0,0.9-0.1
	c0.3-0.1,0.6-0.2,0.8-0.4l0.4,0.6c-0.3,0.2-0.6,0.4-1,0.5C95.8,25.9,95.4,26,94.9,26z M94.8,20.7c-0.2,0-0.5,0-0.7,0.1
	s-0.4,0.2-0.6,0.3c-0.2,0.1-0.3,0.3-0.4,0.6c-0.1,0.2-0.2,0.5-0.3,0.8h3.7c0-0.6-0.2-1-0.5-1.3C95.7,20.8,95.3,20.7,94.8,20.7z
	 M108.5,25.9v-5h-2.3v-0.8h5.6v0.8h-2.3v5H108.5z M116.5,26c-0.4,0-0.9-0.1-1.2-0.2c-0.4-0.1-0.7-0.3-1-0.6c-0.3-0.3-0.5-0.6-0.7-1
	s-0.2-0.8-0.2-1.3s0.1-0.9,0.2-1.3c0.2-0.4,0.4-0.7,0.7-1c0.3-0.3,0.6-0.5,0.9-0.6c0.4-0.1,0.7-0.2,1.1-0.2s0.8,0.1,1.1,0.2
	c0.3,0.1,0.6,0.3,0.8,0.6c0.2,0.2,0.4,0.5,0.5,0.9c0.1,0.3,0.2,0.7,0.2,1.1c0,0.1,0,0.2,0,0.3c0,0.1,0,0.2,0,0.3h-4.6
	c0.1,0.7,0.3,1.2,0.7,1.5c0.4,0.3,0.9,0.5,1.5,0.5c0.4,0,0.7,0,0.9-0.1c0.3-0.1,0.6-0.2,0.8-0.4l0.4,0.6c-0.3,0.2-0.6,0.4-1,0.5
	C117.4,25.9,117,26,116.5,26z M116.4,20.7c-0.2,0-0.5,0-0.7,0.1s-0.4,0.2-0.6,0.3c-0.2,0.1-0.3,0.3-0.4,0.6
	c-0.1,0.2-0.2,0.5-0.3,0.8h3.7c0-0.6-0.2-1-0.5-1.3C117.3,20.8,116.9,20.7,116.4,20.7z M123.9,26c-0.5,0-0.9-0.1-1.3-0.2
	s-0.7-0.3-1-0.6c-0.3-0.3-0.5-0.6-0.7-1s-0.2-0.8-0.2-1.3s0.1-0.9,0.3-1.3c0.2-0.4,0.4-0.7,0.7-1s0.6-0.5,1-0.6s0.8-0.2,1.3-0.2
	s0.9,0.1,1.2,0.3c0.4,0.2,0.6,0.4,0.9,0.6l-0.5,0.6c-0.2-0.2-0.5-0.4-0.8-0.5s-0.5-0.2-0.8-0.2s-0.6,0.1-0.9,0.2s-0.5,0.3-0.7,0.5
	s-0.3,0.4-0.5,0.7c-0.1,0.3-0.2,0.6-0.2,0.9s0.1,0.6,0.2,0.9s0.3,0.5,0.5,0.7s0.4,0.3,0.7,0.5c0.3,0.1,0.6,0.2,0.9,0.2
	c0.4,0,0.7-0.1,1-0.2s0.6-0.3,0.8-0.5l0.4,0.6c-0.3,0.3-0.7,0.5-1.1,0.7C124.7,25.9,124.3,26,123.9,26z M130,25.9v-5h-2.3v-0.8h5.6
	v0.8H131v5H130z M137.7,26c-0.4,0-0.8-0.1-1.1-0.2s-0.6-0.3-0.9-0.6c-0.3-0.3-0.5-0.6-0.6-1c-0.2-0.4-0.2-0.8-0.2-1.3
	s0.1-0.9,0.2-1.3c0.2-0.4,0.4-0.7,0.6-1c0.3-0.3,0.6-0.5,0.9-0.6c0.4-0.1,0.7-0.2,1.1-0.2s0.7,0.1,1.1,0.2c0.4,0.1,0.7,0.3,0.9,0.6
	c0.3,0.3,0.5,0.6,0.6,1c0.2,0.4,0.2,0.8,0.2,1.3s-0.1,0.9-0.2,1.3c-0.2,0.4-0.4,0.7-0.6,1c-0.3,0.3-0.6,0.5-0.9,0.6
	C138.5,25.9,138.1,26,137.7,26z M137.7,25.2c0.3,0,0.5-0.1,0.8-0.2c0.2-0.1,0.4-0.3,0.6-0.5c0.2-0.2,0.3-0.4,0.4-0.7
	c0.1-0.3,0.1-0.6,0.1-0.9s0-0.6-0.1-0.9s-0.2-0.5-0.4-0.7s-0.4-0.4-0.6-0.5c-0.2-0.1-0.5-0.2-0.8-0.2s-0.5,0.1-0.8,0.2
	c-0.2,0.1-0.4,0.3-0.6,0.5c-0.2,0.2-0.3,0.4-0.4,0.7c-0.1,0.3-0.1,0.6-0.1,0.9s0,0.6,0.1,0.9s0.2,0.5,0.4,0.7s0.4,0.3,0.6,0.5
	C137.2,25.1,137.4,25.2,137.7,25.2z M142.6,25.9v-5.8h2.7c0.3,0,0.6,0,0.9,0.1c0.3,0.1,0.5,0.1,0.7,0.3c0.2,0.1,0.4,0.3,0.5,0.5
	s0.2,0.4,0.2,0.7c0,0.3-0.1,0.6-0.3,0.8c-0.2,0.2-0.4,0.3-0.7,0.4l0,0c0.2,0,0.3,0.1,0.5,0.2s0.3,0.2,0.4,0.3
	c0.1,0.1,0.2,0.2,0.3,0.4c0.1,0.2,0.1,0.3,0.1,0.5c0,0.3-0.1,0.5-0.2,0.7s-0.3,0.4-0.5,0.5s-0.5,0.2-0.8,0.3c-0.3,0.1-0.6,0.1-1,0.1
	C145.4,25.9,142.6,25.9,142.6,25.9z M143.5,22.4h1.6c0.5,0,0.9-0.1,1.1-0.2c0.2-0.2,0.3-0.4,0.3-0.6s-0.1-0.5-0.3-0.6
	s-0.6-0.2-1.1-0.2h-1.6V22.4z M143.5,25.1h1.7c0.5,0,0.9-0.1,1.2-0.2c0.3-0.2,0.4-0.4,0.4-0.7c0-0.6-0.5-0.9-1.6-0.9h-1.7
	L143.5,25.1L143.5,25.1z M149.7,25.9v-5.8h1v2.4c0,0.3,0,0.7,0,1c0,0.4,0,0.7-0.1,1.1l0,0c0.1-0.2,0.2-0.4,0.4-0.6
	c0.1-0.2,0.3-0.4,0.4-0.6l2.2-3.3h0.9v5.8h-1v-2.4c0-0.3,0-0.7,0-1c0-0.4,0-0.8,0.1-1.1l0,0c-0.1,0.2-0.2,0.4-0.4,0.6
	c-0.1,0.2-0.3,0.4-0.4,0.6l-2.2,3.3C150.6,25.9,149.7,25.9,149.7,25.9z M156.9,25.9v-5.8h1v2.4c0,0.3,0,0.7,0,1c0,0.4,0,0.7-0.1,1.1
	l0,0c0.1-0.2,0.2-0.4,0.4-0.6c0.1-0.2,0.3-0.4,0.4-0.6l2.2-3.3h0.9v5.8h-1v-2.4c0-0.3,0-0.7,0-1c0-0.4,0-0.8,0.1-1.1l0,0
	c-0.1,0.2-0.2,0.4-0.4,0.6c-0.1,0.2-0.3,0.4-0.4,0.6l-2.2,3.3C157.8,25.9,156.9,25.9,156.9,25.9z M159.4,19c-0.3,0-0.6,0-0.9-0.1
	c-0.2-0.1-0.4-0.2-0.6-0.4c-0.2-0.2-0.3-0.4-0.3-0.6c-0.1-0.2-0.1-0.4-0.1-0.7h0.8c0,0.2,0,0.3,0.1,0.5c0,0.2,0.1,0.3,0.2,0.4
	c0.1,0.1,0.2,0.2,0.3,0.3c0.1,0.1,0.3,0.1,0.5,0.1s0.4,0,0.5-0.1s0.2-0.2,0.3-0.3c0.1-0.1,0.1-0.2,0.2-0.4c0-0.2,0.1-0.3,0.1-0.5
	h0.8c0,0.2-0.1,0.5-0.1,0.7c-0.1,0.2-0.2,0.4-0.3,0.6c-0.2,0.2-0.3,0.3-0.6,0.4C160.1,18.9,159.8,19,159.4,19z M171.2,25.9v-5.8h5
	v5.8h-1v-5h-3v5C172.2,25.9,171.2,25.9,171.2,25.9z M181.3,26c-0.4,0-0.9-0.1-1.2-0.2c-0.4-0.1-0.7-0.3-1-0.6
	c-0.3-0.3-0.5-0.6-0.7-1s-0.2-0.8-0.2-1.3s0.1-0.9,0.2-1.3c0.2-0.4,0.4-0.7,0.7-1s0.6-0.5,0.9-0.6c0.4-0.1,0.7-0.2,1.1-0.2
	c0.4,0,0.8,0.1,1.1,0.2s0.6,0.3,0.8,0.6c0.2,0.2,0.4,0.5,0.5,0.9c0.1,0.3,0.2,0.7,0.2,1.1c0,0.1,0,0.2,0,0.3c0,0.1,0,0.2,0,0.3h-4.6
	c0.1,0.7,0.3,1.2,0.7,1.5s0.9,0.5,1.5,0.5c0.4,0,0.7,0,0.9-0.1c0.3-0.1,0.6-0.2,0.8-0.4l0.4,0.6c-0.3,0.2-0.6,0.4-1,0.5
	C182.2,25.9,181.7,26,181.3,26z M181.1,20.7c-0.2,0-0.5,0-0.7,0.1s-0.4,0.2-0.6,0.3c-0.2,0.1-0.3,0.3-0.4,0.6
	c-0.1,0.2-0.2,0.5-0.3,0.8h3.7c0-0.6-0.2-1-0.5-1.3C182,20.8,181.6,20.7,181.1,20.7z M185.6,28.3V20h0.8l0.1,0.7l0,0
	c0.3-0.3,0.6-0.5,0.9-0.6c0.4-0.2,0.7-0.3,1.1-0.3c0.4,0,0.7,0.1,1,0.2s0.6,0.3,0.8,0.6c0.2,0.3,0.4,0.6,0.5,0.9
	c0.1,0.4,0.2,0.8,0.2,1.2c0,0.5-0.1,0.9-0.2,1.3c-0.1,0.4-0.3,0.7-0.6,1c-0.2,0.3-0.5,0.5-0.8,0.6s-0.7,0.2-1,0.2s-0.6-0.1-0.9-0.2
	c-0.3-0.1-0.6-0.3-0.9-0.6l0,0v1.1v2h-1V28.3z M188.2,25.2c0.5,0,1-0.2,1.3-0.6s0.5-1,0.5-1.7c0-0.3,0-0.6-0.1-0.9s-0.2-0.5-0.3-0.7
	s-0.3-0.3-0.5-0.4s-0.5-0.2-0.7-0.2c-0.3,0-0.5,0.1-0.8,0.2s-0.6,0.4-0.9,0.7v2.9c0.3,0.2,0.6,0.4,0.8,0.5S188,25.2,188.2,25.2z
	 M195.5,25.9v-5h-2.7v-0.8h3.7v5.8C196.5,25.9,195.5,25.9,195.5,25.9z M195.9,18.8c-0.2,0-0.4-0.1-0.6-0.2c-0.2-0.1-0.2-0.3-0.2-0.6
	s0.1-0.4,0.2-0.6c0.2-0.1,0.3-0.2,0.6-0.2c0.2,0,0.4,0.1,0.6,0.2c0.2,0.1,0.2,0.3,0.2,0.6s-0.1,0.4-0.2,0.6
	C196.3,18.7,196.1,18.8,195.9,18.8z M202.5,26c-0.4,0-0.8-0.1-1.1-0.2s-0.6-0.3-0.9-0.6c-0.3-0.3-0.5-0.6-0.6-1
	c-0.2-0.4-0.2-0.8-0.2-1.3s0.1-0.9,0.2-1.3c0.2-0.4,0.4-0.7,0.6-1c0.3-0.3,0.6-0.5,0.9-0.6c0.4-0.1,0.7-0.2,1.1-0.2s0.7,0.1,1.1,0.2
	c0.4,0.1,0.7,0.3,0.9,0.6c0.3,0.3,0.5,0.6,0.6,1c0.2,0.4,0.2,0.8,0.2,1.3s-0.1,0.9-0.2,1.3c-0.2,0.4-0.4,0.7-0.6,1
	c-0.3,0.3-0.6,0.5-0.9,0.6C203.2,25.9,202.9,26,202.5,26z M202.5,25.2c0.3,0,0.5-0.1,0.8-0.2c0.2-0.1,0.4-0.3,0.6-0.5
	c0.2-0.2,0.3-0.4,0.4-0.7c0.1-0.3,0.1-0.6,0.1-0.9s0-0.6-0.1-0.9s-0.2-0.5-0.4-0.7s-0.4-0.4-0.6-0.5c-0.2-0.1-0.5-0.2-0.8-0.2
	s-0.5,0.1-0.8,0.2c-0.2,0.1-0.4,0.3-0.6,0.5c-0.2,0.2-0.3,0.4-0.4,0.7c-0.1,0.3-0.1,0.6-0.1,0.9s0,0.6,0.1,0.9s0.2,0.5,0.4,0.7
	s0.4,0.3,0.6,0.5C201.9,25.1,202.2,25.2,202.5,25.2z M208.6,22.8c-0.1,0.6-0.2,1-0.3,1.4s-0.2,0.6-0.4,0.9h3v-4.2h-2.1L208.6,22.8z
	 M206.7,27.9l-0.1-2.2v-0.6h0.3c0.1,0,0.2-0.1,0.2-0.2c0.1-0.1,0.2-0.2,0.2-0.4c0.1-0.2,0.1-0.4,0.2-0.7s0.1-0.7,0.2-1.2L208,20h3.9
	v5h0.9v0.6l-0.1,2.2h-0.9v-2.1h-4.3v2.1h-0.8V27.9z M216.9,21.7c-0.3,0-0.5-0.1-0.7-0.3c-0.2-0.2-0.3-0.4-0.3-0.7
	c0-0.3,0.1-0.5,0.3-0.7s0.4-0.3,0.7-0.3s0.5,0.1,0.7,0.3c0.2,0.2,0.3,0.4,0.3,0.7c0,0.3-0.1,0.5-0.3,0.7
	C217.4,21.6,217.1,21.7,216.9,21.7z M216.9,26c-0.3,0-0.5-0.1-0.7-0.3c-0.2-0.2-0.3-0.4-0.3-0.7c0-0.3,0.1-0.5,0.3-0.7
	s0.4-0.3,0.7-0.3s0.5,0.1,0.7,0.3c0.2,0.2,0.3,0.4,0.3,0.7c0,0.3-0.1,0.5-0.3,0.7C217.4,25.9,217.1,26,216.9,26z"/>
<path d="M34.2,74v-7.9h2.2c0.4,0,0.8,0,1.1,0.1s0.6,0.2,0.9,0.3c0.2,0.2,0.4,0.4,0.6,0.6c0.1,0.2,0.2,0.5,0.2,0.9s-0.1,0.7-0.3,1.1
	c-0.2,0.3-0.6,0.5-1,0.6l0,0c0.6,0.1,1,0.3,1.3,0.6c0.3,0.3,0.5,0.7,0.5,1.3c0,0.4-0.1,0.7-0.2,1c-0.1,0.3-0.3,0.5-0.6,0.7
	s-0.6,0.3-0.9,0.4C37.4,74,37,74,36.6,74H34.2z M35.2,69.4h1.1c0.7,0,1.2-0.1,1.4-0.3c0.3-0.2,0.4-0.5,0.4-1c0-0.4-0.2-0.7-0.5-0.9
	c-0.3-0.2-0.8-0.3-1.4-0.3h-1.1L35.2,69.4L35.2,69.4z M35.2,73.2h1.3c0.7,0,1.2-0.1,1.6-0.3c0.4-0.2,0.6-0.6,0.6-1.2
	c0-0.5-0.2-0.8-0.5-1c-0.4-0.2-0.9-0.3-1.6-0.3h-1.3L35.2,73.2L35.2,73.2z M43.1,74.1c-0.3,0-0.5,0-0.8-0.1
	c-0.2-0.1-0.5-0.2-0.6-0.3c-0.2-0.1-0.3-0.3-0.4-0.5c-0.1-0.2-0.2-0.4-0.2-0.7c0-0.3,0.1-0.6,0.2-0.9c0.2-0.2,0.4-0.5,0.7-0.6
	c0.3-0.2,0.8-0.3,1.3-0.4s1.2-0.2,1.9-0.3c0-0.2,0-0.4-0.1-0.6s-0.1-0.3-0.3-0.5c-0.1-0.1-0.3-0.2-0.5-0.3c-0.2-0.1-0.4-0.1-0.7-0.1
	c-0.4,0-0.8,0.1-1.1,0.2c-0.4,0.1-0.7,0.3-0.9,0.5l-0.4-0.7c0.1-0.1,0.3-0.2,0.5-0.3c0.2-0.1,0.4-0.2,0.6-0.3
	c0.2-0.1,0.5-0.1,0.7-0.2s0.5-0.1,0.8-0.1c0.8,0,1.4,0.2,1.8,0.7c0.4,0.4,0.6,1,0.6,1.7V74h-0.8l-0.1-0.8l0,0
	c-0.3,0.3-0.7,0.5-1.1,0.7C44,74.1,43.6,74.1,43.1,74.1z M43.4,73.4c0.3,0,0.7-0.1,1-0.2c0.3-0.2,0.7-0.4,1-0.6V71
	c-0.6,0-1.1,0.1-1.6,0.2c-0.4,0.1-0.8,0.2-1,0.3c-0.2,0.1-0.4,0.3-0.5,0.4c-0.1,0.2-0.2,0.3-0.2,0.5s0,0.3,0.1,0.4s0.2,0.2,0.3,0.3
	c0.1,0.1,0.3,0.1,0.4,0.2C43.1,73.3,43.2,73.4,43.4,73.4z M48.5,76.5v-8.3h0.8l0.1,0.7l0,0c0.3-0.3,0.6-0.5,0.9-0.6
	c0.4-0.2,0.7-0.3,1.1-0.3c0.4,0,0.7,0.1,1,0.2s0.6,0.3,0.8,0.6c0.2,0.3,0.4,0.6,0.5,0.9c0.1,0.4,0.2,0.8,0.2,1.2
	c0,0.5-0.1,0.9-0.2,1.3c-0.1,0.4-0.3,0.7-0.6,1c-0.2,0.3-0.5,0.5-0.8,0.6s-0.7,0.2-1,0.2s-0.6-0.1-0.9-0.2c-0.3-0.1-0.6-0.3-0.9-0.6
	l0,0v1.1v2h-1V76.5z M51.1,73.3c0.5,0,1-0.2,1.3-0.6s0.5-1,0.5-1.7c0-0.3,0-0.6-0.1-0.9s-0.2-0.5-0.3-0.7S52.2,69.1,52,69
	s-0.5-0.2-0.7-0.2c-0.3,0-0.5,0.1-0.8,0.2s-0.6,0.4-0.9,0.7v2.9c0.3,0.2,0.6,0.4,0.8,0.5C50.6,73.3,50.9,73.3,51.1,73.3z M57.7,74
	v-5h-2.3v-0.8H61V69h-2.3v5H57.7z M65.6,74v-5h-2.7v-0.8h3.7V74H65.6z M66,66.9c-0.2,0-0.4-0.1-0.6-0.2s-0.2-0.3-0.2-0.6
	c0-0.2,0.1-0.4,0.2-0.6c0.2-0.1,0.3-0.2,0.6-0.2s0.4,0.1,0.6,0.2s0.2,0.3,0.2,0.6c0,0.2-0.1,0.4-0.2,0.6
	C66.4,66.9,66.2,66.9,66,66.9z M73.1,74.1c-0.5,0-0.9-0.1-1.3-0.2s-0.7-0.3-1-0.6c-0.3-0.3-0.5-0.6-0.7-1s-0.2-0.8-0.2-1.3
	s0.1-0.9,0.3-1.3c0.2-0.4,0.4-0.7,0.7-1s0.6-0.5,1-0.6s0.8-0.2,1.3-0.2s0.9,0.1,1.2,0.3c0.4,0.2,0.6,0.4,0.9,0.6l-0.5,0.6
	c-0.2-0.2-0.5-0.4-0.8-0.5s-0.5-0.2-0.8-0.2s-0.6,0.1-0.9,0.2s-0.5,0.3-0.7,0.5s-0.3,0.4-0.5,0.7c-0.1,0.4-0.1,0.7-0.1,1
	s0.1,0.6,0.2,0.9s0.3,0.5,0.5,0.7s0.4,0.3,0.7,0.5c0.3,0.1,0.6,0.2,0.9,0.2c0.4,0,0.7-0.1,1-0.2s0.6-0.3,0.8-0.5l0.4,0.6
	c-0.3,0.3-0.7,0.5-1.1,0.7C74,74.1,73.6,74.1,73.1,74.1z M79.3,74v-5H77v-0.8h5.6V69h-2.3v5H79.3z M84.9,74v-5.8h1v2.1h1.4
	c0.4,0,0.7,0,1,0.1s0.5,0.2,0.8,0.3c0.2,0.1,0.4,0.3,0.5,0.6c0.1,0.2,0.2,0.5,0.2,0.8s-0.1,0.6-0.2,0.8c-0.1,0.2-0.3,0.4-0.5,0.6
	s-0.5,0.3-0.8,0.3c-0.3,0.1-0.6,0.1-1,0.1L84.9,74L84.9,74z M85.9,73.2h1.2c1,0,1.5-0.4,1.5-1.1c0-0.4-0.1-0.6-0.4-0.8
	C88,71.1,87.6,71,87.1,71h-1.2V73.2z M98.9,74v-5.8h5V74h-1v-5h-3v5H98.9z M108.6,74.1c-0.4,0-0.8-0.1-1.1-0.2
	c-0.3-0.1-0.6-0.3-0.9-0.6c-0.3-0.3-0.5-0.6-0.6-1c-0.2-0.4-0.2-0.8-0.2-1.3s0.1-0.9,0.2-1.3c0.2-0.4,0.4-0.7,0.6-1s0.6-0.5,0.9-0.6
	c0.4-0.1,0.7-0.2,1.1-0.2s0.7,0.1,1.1,0.2s0.7,0.3,0.9,0.6s0.5,0.6,0.6,1c0.2,0.4,0.2,0.8,0.2,1.3s-0.1,0.9-0.2,1.3
	c-0.2,0.4-0.4,0.7-0.6,1c-0.3,0.3-0.6,0.5-0.9,0.6C109.3,74.1,108.9,74.1,108.6,74.1z M108.6,73.3c0.3,0,0.5-0.1,0.8-0.2
	c0.2-0.1,0.4-0.3,0.6-0.5s0.3-0.4,0.4-0.7c0.1-0.3,0.1-0.6,0.1-0.9s0-0.6-0.1-0.9s-0.2-0.5-0.4-0.7c-0.2-0.2-0.4-0.4-0.6-0.5
	s-0.5-0.2-0.8-0.2s-0.5,0.1-0.8,0.2c-0.2,0.1-0.4,0.3-0.6,0.5s-0.3,0.4-0.4,0.7c-0.1,0.3-0.1,0.6-0.1,0.9s0,0.6,0.1,0.9
	s0.2,0.5,0.4,0.7c0.2,0.2,0.4,0.3,0.6,0.5C108,73.3,108.3,73.3,108.6,73.3z M113.4,74v-5.8h2.7c0.3,0,0.6,0,0.9,0.1s0.5,0.1,0.7,0.3
	c0.2,0.1,0.4,0.3,0.5,0.5s0.2,0.4,0.2,0.7c0,0.3-0.1,0.6-0.3,0.8c-0.2,0.2-0.4,0.3-0.7,0.4l0,0c0.2,0,0.3,0.1,0.5,0.2
	s0.3,0.2,0.4,0.3c0.1,0.1,0.2,0.2,0.3,0.4c0.1,0.2,0.1,0.3,0.1,0.5c0,0.3-0.1,0.5-0.2,0.7s-0.3,0.4-0.5,0.5s-0.5,0.2-0.8,0.3
	c-0.3,0.1-0.6,0.1-1,0.1H113.4z M114.4,70.6h1.6c0.5,0,0.9-0.1,1.1-0.2c0.2-0.2,0.3-0.4,0.3-0.6c0-0.3-0.1-0.5-0.3-0.6
	c-0.2-0.1-0.6-0.2-1.1-0.2h-1.6V70.6z M114.4,73.2h1.7c0.5,0,0.9-0.1,1.2-0.2c0.3-0.2,0.4-0.4,0.4-0.7c0-0.6-0.5-0.9-1.6-0.9h-1.7
	V73.2z M120.5,74v-5.8h1v2.4h3v-2.4h1V74h-1v-2.6h-3V74H120.5z M130.1,74.1c-0.4,0-0.8-0.1-1.1-0.2s-0.6-0.3-0.9-0.6
	c-0.3-0.3-0.5-0.6-0.6-1c-0.2-0.4-0.2-0.8-0.2-1.3s0.1-0.9,0.2-1.3c0.2-0.4,0.4-0.7,0.6-1c0.3-0.3,0.6-0.5,0.9-0.6
	c0.4-0.1,0.7-0.2,1.1-0.2c0.4,0,0.7,0.1,1.1,0.2c0.4,0.1,0.7,0.3,0.9,0.6c0.3,0.3,0.5,0.6,0.6,1c0.2,0.4,0.2,0.8,0.2,1.3
	s-0.1,0.9-0.2,1.3c-0.2,0.4-0.4,0.7-0.6,1c-0.3,0.3-0.6,0.5-0.9,0.6C130.9,74.1,130.5,74.1,130.1,74.1z M130.1,73.3
	c0.3,0,0.5-0.1,0.8-0.2c0.2-0.1,0.4-0.3,0.6-0.5c0.2-0.2,0.3-0.4,0.4-0.7c0.1-0.3,0.1-0.6,0.1-0.9s0-0.6-0.1-0.9s-0.2-0.5-0.4-0.7
	s-0.4-0.4-0.6-0.5c-0.2-0.1-0.5-0.2-0.8-0.2s-0.5,0.1-0.8,0.2c-0.2,0.1-0.4,0.3-0.6,0.5c-0.2,0.2-0.3,0.4-0.4,0.7
	c-0.1,0.3-0.1,0.6-0.1,0.9s0,0.6,0.1,0.9s0.2,0.5,0.4,0.7s0.4,0.3,0.6,0.5C129.6,73.3,129.9,73.3,130.1,73.3z M135.5,74v-5.8h4.5V69
	h-3.5v5H135.5z M144.5,74.1c-0.4,0-0.8-0.1-1.1-0.2s-0.6-0.3-0.9-0.6c-0.3-0.3-0.5-0.6-0.6-1c-0.2-0.4-0.2-0.8-0.2-1.3
	s0.1-0.9,0.2-1.3c0.2-0.4,0.4-0.7,0.6-1c0.3-0.3,0.6-0.5,0.9-0.6c0.4-0.1,0.7-0.2,1.1-0.2s0.7,0.1,1.1,0.2c0.4,0.1,0.7,0.3,0.9,0.6
	c0.3,0.3,0.5,0.6,0.6,1c0.2,0.4,0.2,0.8,0.2,1.3s-0.1,0.9-0.2,1.3c-0.2,0.4-0.4,0.7-0.6,1c-0.3,0.3-0.6,0.5-0.9,0.6
	C145.3,74.1,144.9,74.1,144.5,74.1z M144.5,73.3c0.3,0,0.5-0.1,0.8-0.2c0.2-0.1,0.4-0.3,0.6-0.5c0.2-0.2,0.3-0.4,0.4-0.7
	c0.1-0.3,0.1-0.6,0.1-0.9s0-0.6-0.1-0.9s-0.2-0.5-0.4-0.7s-0.4-0.4-0.6-0.5c-0.2-0.1-0.5-0.2-0.8-0.2s-0.5,0.1-0.8,0.2
	c-0.2,0.1-0.4,0.3-0.6,0.5c-0.2,0.2-0.3,0.4-0.4,0.7c-0.1,0.3-0.1,0.6-0.1,0.9s0,0.6,0.1,0.9s0.2,0.5,0.4,0.7s0.4,0.3,0.6,0.5
	C144,73.3,144.3,73.3,144.5,73.3z M156.6,74v-5.8h1v2.4h1.5l0.7-1.3c0.1-0.2,0.3-0.5,0.4-0.6c0.1-0.2,0.2-0.3,0.4-0.4
	c0.1-0.1,0.2-0.2,0.4-0.2c0.1,0,0.3-0.1,0.4-0.1s0.3,0,0.4,0.1l-0.2,0.9h-0.1h-0.1c-0.1,0-0.1,0-0.2,0c-0.1,0-0.1,0.1-0.2,0.1
	c-0.1,0.1-0.1,0.1-0.2,0.2c-0.1,0.1-0.2,0.2-0.2,0.4l-0.6,1.2l2,3.1h-1.1l-1.8-2.6h-1.5V74H156.6z M164.1,76.5c-0.3,0-0.5,0-0.8-0.1
	l0.2-0.8c0.1,0,0.2,0,0.3,0.1c0.1,0,0.2,0,0.3,0c0.4,0,0.7-0.1,1-0.4c0.3-0.2,0.5-0.5,0.6-0.9l0.2-0.4l-2.7-5.8h1l1.4,3.2
	c0.1,0.3,0.2,0.5,0.3,0.8s0.3,0.6,0.4,0.9l0,0c0.1-0.3,0.2-0.6,0.3-0.9s0.2-0.6,0.3-0.8l1.3-3.2h0.9l-2.6,6.3
	c-0.1,0.3-0.2,0.6-0.4,0.8c-0.1,0.2-0.3,0.5-0.5,0.6c-0.2,0.2-0.4,0.3-0.7,0.4C164.7,76.5,164.4,76.5,164.1,76.5z M170.8,76.5v-8.3
	h0.8l0.1,0.7l0,0c0.3-0.3,0.6-0.5,0.9-0.6c0.4-0.2,0.7-0.3,1.1-0.3c0.4,0,0.7,0.1,1,0.2s0.6,0.3,0.8,0.6c0.2,0.3,0.4,0.6,0.5,0.9
	c0.1,0.4,0.2,0.8,0.2,1.2c0,0.5-0.1,0.9-0.2,1.3c-0.1,0.4-0.3,0.7-0.6,1c-0.2,0.3-0.5,0.5-0.8,0.6s-0.7,0.2-1,0.2s-0.6-0.1-0.9-0.2
	c-0.3-0.1-0.6-0.3-0.9-0.6l0,0v1.1v2h-1V76.5z M173.4,73.3c0.5,0,1-0.2,1.3-0.6s0.5-1,0.5-1.7c0-0.3,0-0.6-0.1-0.9s-0.2-0.5-0.3-0.7
	s-0.3-0.3-0.5-0.4s-0.5-0.2-0.7-0.2c-0.3,0-0.5,0.1-0.8,0.2s-0.6,0.4-0.9,0.7v2.9c0.3,0.2,0.6,0.4,0.8,0.5
	C172.9,73.3,173.2,73.3,173.4,73.3z M181.1,74.1c-0.5,0-0.9-0.1-1.3-0.2c-0.4-0.1-0.7-0.3-1-0.6c-0.3-0.3-0.5-0.6-0.7-1
	s-0.2-0.8-0.2-1.3s0.1-0.9,0.3-1.3s0.4-0.7,0.7-1s0.6-0.5,1-0.6s0.8-0.2,1.3-0.2s0.9,0.1,1.2,0.3c0.4,0.2,0.6,0.4,0.9,0.6l-0.5,0.6
	c-0.2-0.2-0.5-0.4-0.8-0.5s-0.5-0.2-0.8-0.2s-0.6,0.1-0.9,0.2c-0.3,0.1-0.5,0.3-0.7,0.5s-0.3,0.4-0.5,0.7c-0.1,0.3-0.2,0.6-0.2,0.9
	s0.1,0.6,0.2,0.9c0.1,0.3,0.3,0.5,0.5,0.7s0.4,0.3,0.7,0.5c0.3,0.1,0.6,0.2,0.9,0.2c0.4,0,0.7-0.1,1-0.2s0.6-0.3,0.8-0.5l0.4,0.6
	c-0.3,0.3-0.7,0.5-1.1,0.7C181.9,74.1,181.5,74.1,181.1,74.1z M185.7,76.5c-0.3,0-0.5,0-0.8-0.1l0.2-0.8c0.1,0,0.2,0,0.3,0.1
	c0.1,0,0.2,0,0.3,0c0.4,0,0.7-0.1,1-0.4c0.3-0.2,0.5-0.5,0.6-0.9l0.2-0.4l-2.7-5.8h1l1.4,3.2c0.1,0.3,0.2,0.5,0.3,0.8
	s0.3,0.6,0.4,0.9l0,0c0.1-0.3,0.2-0.6,0.3-0.9s0.2-0.6,0.3-0.8l1.3-3.2h0.9l-2.6,6.3c-0.1,0.3-0.2,0.6-0.4,0.8
	c-0.1,0.2-0.3,0.5-0.5,0.6c-0.2,0.2-0.4,0.3-0.7,0.4C186.3,76.5,186,76.5,185.7,76.5z M194.9,69.8c-0.3,0-0.5-0.1-0.7-0.3
	c-0.2-0.2-0.3-0.4-0.3-0.7c0-0.3,0.1-0.5,0.3-0.7s0.4-0.3,0.7-0.3s0.5,0.1,0.7,0.3c0.2,0.2,0.3,0.4,0.3,0.7c0,0.3-0.1,0.5-0.3,0.7
	C195.4,69.8,195.2,69.8,194.9,69.8z M194.9,74.1c-0.3,0-0.5-0.1-0.7-0.3c-0.2-0.2-0.3-0.4-0.3-0.7s0.1-0.5,0.3-0.7s0.4-0.3,0.7-0.3
	s0.5,0.1,0.7,0.3c0.2,0.2,0.3,0.4,0.3,0.7s-0.1,0.5-0.3,0.7C195.4,74.1,195.2,74.1,194.9,74.1z"/>
<path d="M237.8,17.1c0.7-0.8,1.6-1.3,2.8-1.3c1.1,0,2.1,0.4,2.8,1.3c0.7,0.8,1.1,2.1,1.1,3.8c0,1.7-0.4,3-1.1,3.8
	c-0.7,0.8-1.6,1.3-2.8,1.3c-1.1,0-2.1-0.4-2.8-1.3c-0.7-0.8-1-2.1-1-3.8C236.8,19.3,237.1,18,237.8,17.1z M240.6,24.3
	c1.2,0,1.8-1.1,1.8-3.3s-0.6-3.3-1.8-3.3s-1.8,1.1-1.8,3.3S239.4,24.3,240.6,24.3z M250.1,25.9v-7.2h5.8v1.6H252v5.6
	C252,25.9,250.1,25.9,250.1,25.9z M261,20.1c-0.6,0-1,0.2-1.3,0.6s-0.4,0.9-0.4,1.5s0.1,1.1,0.4,1.5s0.7,0.6,1.3,0.6
	c0.6,0,1-0.2,1.3-0.6s0.4-0.9,0.4-1.6c0-0.6-0.1-1.1-0.4-1.5C261.9,20.3,261.5,20.1,261,20.1z M257.3,18.7h1.9v0.7h0.4
	c0.4-0.6,1.1-0.8,2-0.8s1.7,0.4,2.2,1.1c0.6,0.7,0.8,1.6,0.8,2.7s-0.3,2-0.8,2.7c-0.6,0.7-1.3,1-2.2,1c-0.9,0-1.5-0.3-1.9-0.8h-0.4
	v3.5h-2V18.7z M273.2,25.9h-2V23h-3v2.9h-2v-7.2h2v2.7h3v-2.7h2V25.9z"/>
<path d="M212,67.5c0.9,0,1.6,0.3,2.3,0.9c0.6,0.6,0.9,1.4,0.9,2.3c0,1-0.3,1.8-1,2.5s-1.5,1-2.6,1c-1.2,0-2.2-0.4-2.9-1.2
	c-0.7-0.8-1-2-1-3.7c0-1.6,0.3-2.9,1-3.8c0.7-1,1.7-1.4,3-1.4c0.9,0,1.6,0.2,2.2,0.7c0.6,0.5,1,1.1,1.1,1.8h-2
	c-0.2-0.6-0.6-0.9-1.3-0.9c-0.6,0-1,0.2-1.4,0.7c-0.3,0.4-0.5,1.1-0.6,1.9h0.4C210.4,67.7,211.1,67.5,212,67.5z M210.4,72.1
	c0.3,0.3,0.7,0.4,1.2,0.4s0.9-0.1,1.2-0.4s0.4-0.7,0.4-1.3c0-0.5-0.1-1-0.4-1.2c-0.3-0.3-0.7-0.4-1.2-0.4s-0.9,0.1-1.2,0.4
	s-0.4,0.7-0.4,1.2C209.9,71.3,210.1,71.7,210.4,72.1z M227,66.3l-4,7.7h-2.1l3.9-7.7V66h-4.6v-1.8h6.7v2.1H227z M229.1,65.3
	c0.7-0.8,1.6-1.3,2.8-1.3c1.1,0,2.1,0.4,2.8,1.3c0.7,0.8,1.1,2.1,1.1,3.8c0,1.7-0.4,3-1.1,3.8c-0.7,0.8-1.6,1.3-2.8,1.3
	c-1.1,0-2.1-0.4-2.8-1.3c-0.7-0.8-1-2.1-1-3.8S228.4,66.1,229.1,65.3z M231.9,72.4c1.2,0,1.8-1.1,1.8-3.3c0-2.2-0.6-3.3-1.8-3.3
	s-1.8,1.1-1.8,3.3C230.1,71.3,230.7,72.4,231.9,72.4z M238.2,65.3c0.7-0.8,1.6-1.3,2.8-1.3s2.1,0.4,2.8,1.3c0.7,0.8,1.1,2.1,1.1,3.8
	c0,1.7-0.4,3-1.1,3.8c-0.7,0.8-1.6,1.3-2.8,1.3s-2.1-0.4-2.8-1.3c-0.7-0.8-1.1-2.1-1.1-3.8C237.1,67.4,237.5,66.1,238.2,65.3z
	 M241,72.4c1.2,0,1.8-1.1,1.8-3.3c0-2.2-0.6-3.3-1.8-3.3s-1.8,1.1-1.8,3.3S239.8,72.4,241,72.4z M250.4,74v-7.2h5.8v1.6h-3.9V74
	H250.4z M261.3,68.3c-0.6,0-1,0.2-1.3,0.6s-0.4,0.9-0.4,1.5s0.1,1.1,0.4,1.5s0.7,0.6,1.3,0.6c0.6,0,1-0.2,1.3-0.6s0.4-0.9,0.4-1.6
	c0-0.6-0.1-1.1-0.4-1.5C262.3,68.5,261.9,68.3,261.3,68.3z M257.7,66.8h1.9v0.7h0.4c0.4-0.6,1.1-0.8,2-0.8s1.7,0.4,2.2,1.1
	c0.6,0.7,0.8,1.6,0.8,2.7s-0.3,2-0.8,2.7c-0.6,0.7-1.3,1-2.2,1c-0.9,0-1.5-0.3-1.9-0.8h-0.4v3.5h-2V66.8z M273.6,74h-2v-2.9h-3V74
	h-2v-7.2h2v2.7h3v-2.7h2V74z"/>
</svg>
