<svg width="64" height="51" viewBox="0 0 64 51" fill="none" xmlns="http://www.w3.org/2000/svg">
<rect x="26.8799" y="3.48047" width="10.24" height="45.44" fill="#00FA9A"/>
<path d="M50.5036 0H39.3505H35.5484H28.4505H24.6484H13.4963H0V13.4962V21.9079V31.602V35.4041V36.6274V40.4295V41.6527V45.4549V50.4804H24.6484H28.4516H35.5482H39.3505H64V45.4549V41.6527V40.4295V36.6274V31.602V21.9079V13.4962V0H50.5036ZM3.80212 3.80213H9.45963C8.762 6.575 6.575 8.762 3.80212 9.45962V3.80213ZM3.80212 25.9445C6.57487 26.6421 8.762 28.8291 9.45963 31.602H3.80212V25.9445ZM24.6484 46.6785H3.80212V45.4551H24.6484V46.6785ZM24.6484 41.6529H3.80212V40.4296H24.6484V41.6529ZM24.6484 36.6274H3.80212V35.4041H13.4963H24.6485V36.6274H24.6484ZM24.6484 24.9969C21.442 24.1192 19.072 21.1717 19.072 17.7021C19.072 14.2325 21.4419 11.285 24.6484 10.4074V24.9969ZM24.6484 6.5145C22.3525 6.91725 20.2391 8.013 18.5654 9.70037C16.4403 11.8426 15.2699 14.6844 15.2699 17.7021C15.2699 20.7199 16.4401 23.5615 18.5654 25.7037C20.2393 27.391 22.3525 28.4867 24.6484 28.8896V31.6021H13.3395C12.5321 26.7286 8.67562 22.872 3.80212 22.0647V13.3399C8.67562 12.5325 12.5323 8.67587 13.3395 3.8025H24.6484V6.5145ZM35.5482 36.6275V40.4296V41.6529V45.455V46.6784H28.4516V45.455V41.6529V40.4296V36.6275V35.4042H35.5482V36.6275ZM35.5484 6.32262V29.0815V31.602H35.5482H28.4516H28.4505V29.0815V6.32262V3.80213H35.5484V6.32262ZM39.3506 10.4071C42.5571 11.2846 44.9274 14.2322 44.9274 17.7021C44.9274 21.172 42.5571 24.1195 39.3506 24.997V10.4071ZM60.1979 46.6785H39.3506V45.4551H60.1979V46.6785ZM60.1979 41.6529H39.3506V40.4296H60.1979V41.6529ZM60.1979 36.6275H39.3506V35.4042H50.5037H60.198V36.6275H60.1979ZM60.1979 31.6019H54.5404C55.238 28.8291 57.425 26.642 60.1979 25.9444V31.6019ZM60.1979 22.0645C55.3244 22.8719 51.4678 26.7285 50.6605 31.6019H39.3506V28.8896C41.6466 28.4869 43.76 27.3911 45.4339 25.7037C47.5591 23.5615 48.7295 20.7197 48.7295 17.7019C48.7295 14.684 47.5591 11.8424 45.4339 9.7C43.7599 8.01275 41.6465 6.917 39.3506 6.51412V3.80213H50.6605C51.4679 8.67562 55.3244 12.5322 60.1979 13.3395V22.0645ZM60.1979 9.45962C57.4251 8.762 55.238 6.57487 54.5404 3.80213H60.1979V9.45962Z" fill="black"/>
</svg>
