<svg width="64" height="64" viewBox="0 0 64 64" fill="none" xmlns="http://www.w3.org/2000/svg">
<g clip-path="url(#clip0)">
<ellipse cx="32.0002" cy="33.9198" rx="5.76" ry="5.12" fill="#00FA9A"/>
<path d="M58.4351 43.6453C57.8085 43.6453 57.187 43.752 56.5879 43.9627L38.9841 50.1503C39.0608 49.7807 39.1012 49.398 39.1012 49.006C39.1012 45.9056 36.5788 43.3833 33.4785 43.3833H17.0251C11.9336 43.3833 7.14676 45.366 3.54653 48.9664L0.0146484 52.4981V63.9999H40.7415L60.8627 54.1977C62.7595 53.2737 63.985 51.3134 63.985 49.2035C63.9852 46.1387 61.4954 43.6453 58.4351 43.6453ZM59.2213 50.828L39.8772 60.2516H3.76294V54.0508L6.19695 51.6168C9.08925 48.7245 12.9347 47.1317 17.0251 47.1317H33.4784C34.5119 47.1317 35.3527 47.9726 35.3527 49.0061C35.3527 50.0396 34.5119 50.8804 33.4784 50.8804H21.5673V54.6287H37.5467L57.8307 47.4989C58.0295 47.4291 58.2328 47.3936 58.4349 47.3936C59.3016 47.3936 60.2367 48.0856 60.2367 49.2035C60.2369 49.8898 59.8383 50.5274 59.2213 50.828Z" fill="black"/>
<path d="M22.8546 26.3341C23.8661 27.1338 24.4463 28.3178 24.4463 29.5826V34.4196L26.7671 39.2398H37.2328L39.5536 34.4196V29.5946C39.5536 28.3233 40.1362 27.1328 41.152 26.3287C44.7129 23.5099 46.7551 19.2914 46.7551 14.7553C46.7549 6.61923 40.1358 0 31.9998 0C31.8098 0 31.617 0.00374829 31.4266 0.01087C27.6042 0.156179 24.0304 1.76769 21.3635 4.54867C18.6983 7.32803 17.2354 10.9656 17.2447 14.7914C17.2557 19.3167 19.3004 23.5239 22.8546 26.3341ZM34.8772 35.4915H29.1222L28.1944 33.5644V31.4567H35.8051V33.5644L34.8772 35.4915ZM24.0689 7.14311C26.0595 5.06743 28.7231 3.86461 31.5689 3.75653C31.7121 3.75116 31.8571 3.74829 31.9998 3.74829C38.069 3.74829 43.0067 8.68603 43.0067 14.7551C43.0067 18.139 41.4826 21.2861 38.8254 23.3897C37.416 24.5054 36.4503 26.022 36.0353 27.7083H27.9668C27.5536 26.0231 26.5885 24.5078 25.1794 23.3937C22.5271 21.2965 21.0013 18.1578 20.9931 14.7824C20.9861 11.9318 22.0785 9.21866 24.0689 7.14311Z" fill="black"/>
<path d="M7.92432 12.9131H13.496V16.6614H7.92432V12.9131Z" fill="black"/>
<path d="M10.2129 4.37305L12.087 1.12703L16.9121 3.91288L15.038 7.1589L10.2129 4.37305Z" fill="black"/>
<path d="M10.2124 25.2007L15.0375 22.4148L16.9116 25.6608L12.0865 28.4467L10.2124 25.2007Z" fill="black"/>
<path d="M50.5034 12.9131H56.0751V16.6614H50.5034V12.9131Z" fill="black"/>
<path d="M47.0859 3.9126L51.911 1.12675L53.7852 4.37276L48.9601 7.15862L47.0859 3.9126Z" fill="black"/>
<path d="M47.0864 25.6626L48.9606 22.4166L53.7857 25.2024L51.9115 28.4485L47.0864 25.6626Z" fill="black"/>
</g>
<defs>
<clipPath id="clip0">
<rect width="64" height="64" fill="white"/>
</clipPath>
</defs>
</svg>
