<svg width="64" height="64" viewBox="0 0 64 64" fill="none" xmlns="http://www.w3.org/2000/svg">
<rect x="9.6001" y="16.1782" width="17.28" height="16.64" fill="#00FA9A"/>
<path d="M0 0V41.3166H64V0H0ZM60.1979 37.5145H3.80212V3.80225H60.1979V37.5145Z" fill="black"/>
<path d="M27.277 13.8463C27.4533 13.3073 27.5501 12.7327 27.5501 12.1354C27.5501 9.09556 25.0771 6.62256 22.0372 6.62256C20.6563 6.62256 19.3936 7.13393 18.4255 7.97581C17.4572 7.13406 16.1943 6.62256 14.8137 6.62256C11.774 6.62256 9.30071 9.09556 9.30071 12.1354C9.30071 12.7327 9.39746 13.3073 9.57384 13.8463H8.00146V34.6938H28.8491V13.8463H27.277ZM16.5242 30.8917H11.8036V26.1711H16.5242V30.8917ZM16.5242 22.3689H11.8036V17.6484H14.8135H16.5242V22.3689ZM16.5242 13.8463H14.8135C13.8701 13.8463 13.1026 13.0788 13.1026 12.1354C13.1026 11.1922 13.87 10.4247 14.8135 10.4247C15.7568 10.4247 16.5242 11.1922 16.5242 12.1354V13.8463ZM20.3263 12.1354C20.3263 11.1921 21.0937 10.4247 22.0371 10.4247C22.9805 10.4247 23.7478 11.1922 23.7478 12.1354C23.7478 13.0787 22.9805 13.8463 22.0371 13.8463H20.3263V12.1354ZM25.047 30.8917H20.3263V26.1711H25.047V30.8917ZM25.0471 22.3689H20.3263V17.6484H22.0372H25.0471V22.3689Z" fill="black"/>
<path d="M56.5011 16.0273H32.4209V19.8295H56.5011V16.0273Z" fill="black"/>
<path d="M50.0388 9.68555H38.8833V13.4877H50.0388V9.68555Z" fill="black"/>
<path d="M56.5011 22.3696H32.4209V26.1718H56.5011V22.3696Z" fill="black"/>
<path d="M56.5011 28.7114H32.4209V32.5136H56.5011V28.7114Z" fill="black"/>
</svg>
