<svg width="80" height="80" viewBox="0 0 80 80" fill="none" xmlns="http://www.w3.org/2000/svg">
<rect x="5" y="50" width="69" height="10" fill="#00FA9A"/>
<path d="M77.4609 62.5939V5.71313H2.46094V62.5939H31.4447L29.7272 69.6375H25.5478V74.0321H54.375V69.6375H50.1947L48.4776 62.5939H77.4609ZM64.5703 58.1994V52.0022H73.0664V58.1994H64.5703ZM73.0664 10.1077V47.6077H6.85547V10.1077H73.0664ZM6.85547 52.0022H60.1758V58.1994H6.85547V52.0022ZM45.6715 69.6366H34.2503L35.9683 62.5939H43.9535L45.6715 69.6366Z" fill="black"/>
<path d="M27.5855 33.3188H19.733V20.1499H14.9782V37.4643H27.5855V33.3188Z" fill="black"/>
<path d="M29.2437 20.1499H33.9985V37.4643H29.2437V20.1499Z" fill="black"/>
<path d="M45.6792 37.4643L52.044 20.1499H47.0447L43.7044 31.4901L40.3142 20.1499H35.2907L41.7287 37.4643H45.6792Z" fill="black"/>
<path d="M65.7006 33.3188H58.1164V30.5878H64.4079V26.7344H58.1164V24.2959H65.4814V20.1499H53.3616V37.4643H65.7006V33.3188Z" fill="black"/>
</svg>
