<svg width="80" height="80" viewBox="0 0 80 80" fill="none" xmlns="http://www.w3.org/2000/svg">
<rect x="15" y="52" width="50" height="22" fill="#00FA9A"/>
<path d="M40 68.125C41.2944 68.125 42.3438 67.0757 42.3438 65.7812C42.3438 64.4868 41.2944 63.4375 40 63.4375C38.7056 63.4375 37.6562 64.4868 37.6562 65.7812C37.6562 67.0757 38.7056 68.125 40 68.125Z" fill="black"/>
<path d="M70.4688 63.4375C69.6652 63.4375 68.8739 63.543 68.1106 63.7416L70.4233 52.1784C70.5609 51.4898 70.3827 50.7758 69.9375 50.2328C69.4923 49.6897 68.8272 49.375 68.125 49.375H65.5455C64.9638 46.5211 63.3416 44.0414 61.0938 42.3502V23.5938C61.0938 11.9627 51.6311 2.5 40 2.5C28.3689 2.5 18.9062 11.9627 18.9062 23.5938V42.3502C16.6584 44.0414 15.0363 46.5211 14.4545 49.375H11.875C11.1728 49.375 10.5077 49.6898 10.0625 50.2328C9.61734 50.7758 9.43906 51.4898 9.57672 52.1784L11.8894 63.7416C11.1261 63.543 10.3348 63.4375 9.53125 63.4375C4.39141 63.4375 0 67.5912 0 72.8125V75.1562C0 76.4506 1.04937 77.5 2.34375 77.5H77.6562C78.9506 77.5 80 76.4506 80 75.1562V72.8125C80 67.59 75.6075 63.4375 70.4688 63.4375ZM14.7339 54.0625H65.2661L61.5161 72.8125H18.4839L14.7339 54.0625ZM33.2166 44.1905C35.1927 43.4039 36.7308 41.7473 37.3537 39.695C38.2048 39.8923 39.0898 40 40 40C40.9102 40 41.7952 39.8923 42.6463 39.695C43.2692 41.7473 44.8073 43.4039 46.7834 44.1905C45.9702 47.1742 43.238 49.375 40 49.375C36.762 49.375 34.0298 47.1742 33.2166 44.1905ZM35.3125 19.4553C36.5573 20.5708 38.2009 21.25 40 21.25H47.0312V28.2812C47.0312 32.1583 43.877 35.3125 40 35.3125C36.123 35.3125 32.9688 32.1583 32.9688 28.2812V20.8467C33.8414 20.5372 34.6361 20.0614 35.3125 19.4553ZM49.3686 49.375C50.3944 48.0116 51.1302 46.4186 51.483 44.6875H54.0625C57.118 44.6875 59.7231 46.6472 60.6906 49.375H49.3686ZM23.5938 23.5938C23.5938 14.5473 30.9536 7.1875 40 7.1875C49.0464 7.1875 56.4062 14.5473 56.4062 23.5938V40.2358C55.6488 40.0814 54.865 40 54.0625 40H49.375C48.0827 40 47.0312 38.9486 47.0312 37.6562V37.6498C49.8756 35.5097 51.7188 32.1069 51.7188 28.2812V18.9062C51.7188 17.6119 50.6694 16.5625 49.375 16.5625H40C38.7077 16.5625 37.6562 15.5114 37.6562 14.2188C37.6562 14.2137 37.6562 14.2087 37.6562 14.2036C37.648 12.9163 36.6019 11.875 35.3125 11.875C34.0181 11.875 32.9688 12.9244 32.9688 14.2188C32.9688 15.5111 31.9173 16.5625 30.625 16.5625C29.3306 16.5625 28.2812 17.6119 28.2812 18.9062V28.2812C28.2812 32.1069 30.1244 35.5097 32.9688 37.6498V37.6562C32.9688 38.9486 31.9173 40 30.625 40H25.9375C25.135 40 24.3512 40.0814 23.5938 40.2358V23.5938ZM25.9375 44.6875H28.517C28.8698 46.4186 29.6056 48.0116 30.6314 49.375H19.3094C20.2769 46.6472 22.882 44.6875 25.9375 44.6875ZM9.53125 68.125C10.8625 68.125 12.08 68.6538 13.0931 69.7605L13.7036 72.8125H4.6875C4.6875 70.2716 6.90562 68.125 9.53125 68.125ZM66.2964 72.8125L66.9069 69.7605C67.918 68.6559 69.1347 68.125 70.4688 68.125C73.0944 68.125 75.3125 70.2716 75.3125 72.8125H66.2964Z" fill="black"/>
</svg>
