<svg width="230" height="220" viewBox="0 0 230 220" fill="none" xmlns="http://www.w3.org/2000/svg">
<circle cx="124.25" cy="115" r="103" fill="#00FA9A" stroke="black" stroke-width="4"/>
<circle cx="105.75" cy="105" r="103" fill="white" stroke="black" stroke-width="4"/>
<mask id="mask0" mask-type="alpha" maskUnits="userSpaceOnUse" x="2" y="2" width="207" height="206">
<circle cx="105.75" cy="105" r="103" fill="white"/>
</mask>
<g mask="url(#mask0)">
<path d="M98.2978 75.2166L102.452 71.0626L99.5147 68.1251C99.2419 67.8523 98.9181 67.6358 98.5617 67.4881C98.2053 67.3405 97.8233 67.2644 97.4375 67.2644H85.6875V73.1394H96.221L98.2978 75.2166Z" fill="black"/>
<path d="M116.279 73.1394H126.813V67.2644H115.063C114.677 67.2644 114.295 67.3404 113.938 67.488C113.582 67.6356 113.258 67.852 112.985 68.1247L110.048 71.0622L114.202 75.2162L116.279 73.1394Z" fill="black"/>
<path d="M199.998 200.535L179.435 154.198C179.205 153.678 178.828 153.237 178.352 152.927C177.875 152.617 177.319 152.452 176.75 152.452H129.75V129.044L135.485 124.128C136.451 123.302 137.226 122.275 137.757 121.12C138.289 119.965 138.563 118.709 138.562 117.437V107.024L146.067 102.021C146.469 101.753 146.799 101.389 147.027 100.963C147.256 100.536 147.375 100.06 147.375 99.5769V79.0143C147.375 78.5489 147.264 78.0901 147.052 77.6758C146.84 77.2615 146.533 76.9035 146.155 76.6314C145.777 76.3593 145.341 76.1808 144.88 76.1106C144.42 76.0404 143.95 76.0806 143.509 76.2278L140.027 77.3884L146.957 65.8386C147.155 65.5077 147.287 65.141 147.343 64.7594C147.4 64.3778 147.381 63.9888 147.287 63.6145L144.35 51.8645H144.345C144.295 51.6564 144.222 51.4545 144.127 51.2623C134.503 32.0143 115.449 32.0143 109.188 32.0143C104.945 32.0143 95.9746 27.9973 92.8756 26.4492C92.3241 26.1737 91.7 26.0787 91.0916 26.1775C90.4831 26.2764 89.9212 26.5641 89.4853 27L85.0886 31.3964C84.6307 31.0251 84.1178 30.5724 83.715 30.217C81.9727 28.6788 79.9961 26.9354 77.7063 26.2594C76.7659 25.9655 75.7654 25.9205 74.8024 26.1287C73.8393 26.3369 72.9468 26.7912 72.2117 27.4473C69.2166 30.0304 68.2244 35.7376 68.7679 40.171L68.0827 52.1344L65.2128 63.6145C65.1191 63.9888 65.1001 64.3778 65.1568 64.7594C65.2135 65.141 65.3448 65.5077 65.5432 65.8386L72.4732 77.3884L68.9915 76.2278C68.5499 76.0806 68.0797 76.0404 67.6196 76.1106C67.1595 76.1808 66.7226 76.3593 66.345 76.6314C65.9674 76.9035 65.6599 77.2615 65.4478 77.6758C65.2356 78.0901 65.125 78.5489 65.125 79.0143V96.6394C65.125 97.0251 65.201 97.4071 65.3486 97.7635C65.4962 98.1199 65.7126 98.4437 65.9853 98.7165L73.9375 106.669V117.437C73.9369 118.709 74.2116 119.965 74.7429 121.12C75.2741 122.275 76.0492 123.301 77.0149 124.128L82.75 129.044V152.452H35.75C35.191 152.452 34.6436 152.611 34.1721 152.912C33.7007 153.212 33.3246 153.641 33.0883 154.147L12.5258 198.21C12.3441 198.599 12.25 199.023 12.25 199.452V214.139H53.375V178.889H59.25V214.139H150.68V178.889H156.555V214.139H200.25V201.726C200.25 201.316 200.164 200.91 199.998 200.535ZM141.5 98.0049L138.562 99.9631V84.0691L141.5 83.0898V98.0049ZM138.562 68.4096V64.3268C138.562 62.2251 137.035 58.6248 134.832 55.5143H139.207L141.293 63.859L138.562 68.4096ZM73.2935 55.5143H79.1049C77.0259 57.6488 73.9375 61.3243 73.9375 64.3268V68.4092L71.2071 63.859L73.2935 55.5143ZM71 95.4229V83.0901L73.9375 84.0694V98.3604L71 95.4229ZM79.8125 117.438V64.4003C80.2561 62.2563 86.5541 55.9579 88.6984 55.5143H126.687C127.184 55.7089 128.621 56.8314 130.324 59.3448C131.983 61.7932 132.682 63.7974 132.688 64.3268V117.437C132.688 117.861 132.596 118.28 132.419 118.665C132.242 119.05 131.984 119.392 131.662 119.668L114.8 134.12C114.268 134.576 113.59 134.827 112.889 134.827H99.6109C98.9096 134.827 98.2314 134.576 97.6989 134.12L80.8381 119.668C80.5162 119.392 80.2579 119.05 80.0809 118.665C79.9038 118.28 79.8123 117.861 79.8125 117.437V117.438ZM93.8758 138.58C95.4732 139.949 97.5073 140.701 99.6109 140.702H112.889C114.993 140.701 117.027 139.949 118.624 138.58L123.875 134.08V154.173L106.25 171.798L88.625 154.173V134.08L93.8758 138.58Z" fill="black"/>
<path d="M94.5 79.0144H88.625V84.8894H94.5V79.0144Z" fill="black"/>
<path d="M123.875 79.0144H118V84.8894H123.875V79.0144Z" fill="black"/>
<path d="M92.4228 113.131L89.4853 110.194L93.6397 106.04L95.7165 108.117H113.846L115.923 106.04L120.077 110.194L117.14 113.131C116.867 113.404 116.543 113.62 116.187 113.768C115.83 113.916 115.448 113.992 115.063 113.992H94.5C94.1143 113.992 93.7323 113.916 93.3759 113.768C93.0195 113.621 92.6956 113.404 92.4228 113.131Z" fill="black"/>
<path d="M100.997 101.385C101.272 101.736 101.623 102.021 102.024 102.217C102.426 102.413 102.866 102.514 103.313 102.514H115.063V96.6394H107.075L109.1 88.5392C109.158 88.3063 109.188 88.0671 109.188 87.8269V84.8894H103.313V87.4652L100.463 98.8642C100.354 99.2973 100.346 99.7494 100.439 100.186C100.531 100.623 100.722 101.033 100.997 101.385Z" fill="black"/>
</g>
<path d="M78.6364 77H133.364L141 78.4584V84.2918C141 85.0978 140.348 85.7501 139.542 85.7501H138.083V87.2085C138.084 88.0145 137.431 88.6668 136.625 88.6668H135.167V90.1251C135.167 90.9312 134.514 91.5835 133.708 91.5835H132.25V93.0418C132.25 93.8478 131.598 94.5001 130.792 94.5001H116.208C115.402 94.5001 114.75 93.8478 114.75 93.0418V91.5834H113.292C112.486 91.5834 111.833 90.9311 111.833 90.125V88.6668H110.375C109.569 88.6668 108.917 88.0145 108.917 87.2084V79.9168H103.083V87.2084C103.083 88.0145 102.431 88.6668 101.625 88.6668H100.167V90.1251C100.167 90.9312 99.5143 91.5835 98.7082 91.5835H97.2501V93.0418C97.2501 93.8478 96.5979 94.5001 95.7918 94.5001H81.2084C80.4023 94.5001 79.75 93.8478 79.75 93.0418V91.5834H78.2916C77.4855 91.5834 76.8332 90.9311 76.8332 90.125V88.6668H75.3751C74.569 88.6668 73.9168 88.0145 73.9168 87.2084V85.75H72.4584C71.6523 85.75 71 85.0977 71 84.2916V78.4582L78.6364 77ZM123.5 90.1251H126.417V87.2085H129.334V84.2918H132.25V81.3751H129.334V84.2918H126.417V87.2084H123.5V90.1251ZM88.5001 90.1251H91.4168V87.2085H94.3334V84.2918H97.2501V81.3751H94.3335V84.2918H91.4169V87.2084H88.5001V90.1251Z" fill="black"/>
</svg>
