<?xml version="1.0" encoding="utf-8"?>
<!-- Generator: Adobe Illustrator 24.0.2, SVG Export Plug-In . SVG Version: 6.00 Build 0)  -->
<svg version="1.1" id="Слой_1" xmlns="http://www.w3.org/2000/svg" xmlns:xlink="http://www.w3.org/1999/xlink" x="0px" y="0px"
	 viewBox="0 0 1499.7 64" style="enable-background:new 0 0 1499.7 64;" xml:space="preserve">
<style type="text/css">
	.st0{fill:none;}
	.st1{fill:#FFFFFF;}
	.st2{clip-path:url(#SVGID_2_);}
</style>
<rect x="59.7" y="0" class="st0" width="1440" height="64"/>
<rect x="59.7" y="0" class="st1" width="1440" height="64"/>
<g>
	<defs>
		<rect id="SVGID_1_" x="64.7" y="-67" width="1431" height="649.2"/>
	</defs>
	<clipPath id="SVGID_2_">
		<use xlink:href="#SVGID_1_"  style="overflow:visible;"/>
	</clipPath>
	<g class="st2">
		<circle cx="67.2" cy="10" r="2.5"/>
		<circle cx="82.2" cy="10" r="2.5"/>
		<circle cx="97.2" cy="10" r="2.5"/>
		<circle cx="112.2" cy="10" r="2.5"/>
		<circle cx="127.2" cy="10" r="2.5"/>
		<circle cx="142.2" cy="10" r="2.5"/>
		<circle cx="157.2" cy="10" r="2.5"/>
		<circle cx="172.2" cy="10" r="2.5"/>
		<circle cx="187.2" cy="10" r="2.5"/>
		<circle cx="202.2" cy="10" r="2.5"/>
		<circle cx="217.2" cy="10" r="2.5"/>
		<circle cx="232.2" cy="10" r="2.5"/>
		<circle cx="247.2" cy="10" r="2.5"/>
		<circle cx="262.3" cy="10" r="2.5"/>
		<circle cx="277.3" cy="10" r="2.5"/>
		<circle cx="292.3" cy="10" r="2.5"/>
		<circle cx="307.3" cy="10" r="2.5"/>
		<circle cx="322.3" cy="10" r="2.5"/>
		<circle cx="337.3" cy="10" r="2.5"/>
		<circle cx="352.3" cy="10" r="2.5"/>
		<circle cx="367.3" cy="10" r="2.5"/>
		<circle cx="382.3" cy="10" r="2.5"/>
		<circle cx="397.3" cy="10" r="2.5"/>
		<circle cx="412.3" cy="10" r="2.5"/>
		<circle cx="67.2" cy="25" r="2.5"/>
		<circle cx="82.2" cy="25" r="2.5"/>
		<circle cx="97.2" cy="25" r="2.5"/>
		<circle cx="112.2" cy="25" r="2.5"/>
		<circle cx="127.2" cy="25" r="2.5"/>
		<circle cx="142.2" cy="25" r="2.5"/>
		<circle cx="157.2" cy="25" r="2.5"/>
		<circle cx="172.2" cy="25" r="2.5"/>
		<circle cx="187.2" cy="25" r="2.5"/>
		<circle cx="202.2" cy="25" r="2.5"/>
		<circle cx="217.2" cy="25" r="2.5"/>
		<circle cx="232.2" cy="25" r="2.5"/>
		<circle cx="247.2" cy="25" r="2.5"/>
		<circle cx="262.3" cy="25" r="2.5"/>
		<circle cx="277.3" cy="25" r="2.5"/>
		<circle cx="292.3" cy="25" r="2.5"/>
		<circle cx="307.3" cy="25" r="2.5"/>
		<circle cx="322.3" cy="25" r="2.5"/>
		<circle cx="337.3" cy="25" r="2.5"/>
		<circle cx="352.3" cy="25" r="2.5"/>
		<circle cx="367.3" cy="25" r="2.5"/>
		<circle cx="382.3" cy="25" r="2.5"/>
		<circle cx="397.3" cy="25" r="2.5"/>
		<circle cx="412.3" cy="25" r="2.5"/>
		<circle cx="67.2" cy="40" r="2.5"/>
		<circle cx="82.2" cy="40" r="2.5"/>
		<circle cx="97.2" cy="40" r="2.5"/>
		<circle cx="112.2" cy="40" r="2.5"/>
		<circle cx="127.2" cy="40" r="2.5"/>
		<circle cx="142.2" cy="40" r="2.5"/>
		<circle cx="157.2" cy="40" r="2.5"/>
		<circle cx="172.2" cy="40" r="2.5"/>
		<circle cx="187.2" cy="40" r="2.5"/>
		<circle cx="202.2" cy="40" r="2.5"/>
		<circle cx="217.2" cy="40" r="2.5"/>
		<circle cx="232.2" cy="40" r="2.5"/>
		<circle cx="247.2" cy="40" r="2.5"/>
		<circle cx="262.3" cy="40" r="2.5"/>
		<circle cx="277.3" cy="40" r="2.5"/>
		<circle cx="292.3" cy="40" r="2.5"/>
		<circle cx="307.3" cy="40" r="2.5"/>
		<circle cx="322.3" cy="40" r="2.5"/>
		<circle cx="337.3" cy="40" r="2.5"/>
		<circle cx="352.3" cy="40" r="2.5"/>
		<circle cx="367.3" cy="40" r="2.5"/>
		<circle cx="382.3" cy="40" r="2.5"/>
		<circle cx="397.3" cy="40" r="2.5"/>
		<circle cx="412.3" cy="40" r="2.5"/>
		<circle cx="67.2" cy="55" r="2.5"/>
		<circle cx="82.2" cy="55" r="2.5"/>
		<circle cx="97.2" cy="55" r="2.5"/>
		<circle cx="112.2" cy="55" r="2.5"/>
		<circle cx="127.2" cy="55" r="2.5"/>
		<circle cx="142.2" cy="55" r="2.5"/>
		<circle cx="157.2" cy="55" r="2.5"/>
		<circle cx="172.2" cy="55" r="2.5"/>
		<circle cx="187.2" cy="55" r="2.5"/>
		<circle cx="202.2" cy="55" r="2.5"/>
		<circle cx="217.2" cy="55" r="2.5"/>
		<circle cx="232.2" cy="55" r="2.5"/>
		<circle cx="247.2" cy="55" r="2.5"/>
		<circle cx="262.3" cy="55" r="2.5"/>
		<circle cx="277.3" cy="55" r="2.5"/>
		<circle cx="292.3" cy="55" r="2.5"/>
		<circle cx="307.3" cy="55" r="2.5"/>
		<circle cx="322.3" cy="55" r="2.5"/>
		<circle cx="337.3" cy="55" r="2.5"/>
		<circle cx="352.3" cy="55" r="2.5"/>
		<circle cx="367.3" cy="55" r="2.5"/>
		<circle cx="382.3" cy="55" r="2.5"/>
		<circle cx="397.3" cy="55" r="2.5"/>
		<circle cx="412.3" cy="55" r="2.5"/>
		<circle cx="427.5" cy="10" r="2.5"/>
		<circle cx="442.5" cy="10" r="2.5"/>
		<circle cx="457.5" cy="10" r="2.5"/>
		<circle cx="472.5" cy="10" r="2.5"/>
		<circle cx="487.5" cy="10" r="2.5"/>
		<circle cx="502.5" cy="10" r="2.5"/>
		<circle cx="517.5" cy="10" r="2.5"/>
		<circle cx="532.5" cy="10" r="2.5"/>
		<circle cx="547.5" cy="10" r="2.5"/>
		<circle cx="562.5" cy="10" r="2.5"/>
		<circle cx="577.5" cy="10" r="2.5"/>
		<circle cx="592.5" cy="10" r="2.5"/>
		<circle cx="607.5" cy="10" r="2.5"/>
		<circle cx="622.5" cy="10" r="2.5"/>
		<circle cx="637.6" cy="10" r="2.5"/>
		<circle cx="652.6" cy="10" r="2.5"/>
		<circle cx="667.6" cy="10" r="2.5"/>
		<circle cx="682.6" cy="10" r="2.5"/>
		<circle cx="697.6" cy="10" r="2.5"/>
		<circle cx="712.6" cy="10" r="2.5"/>
		<circle cx="727.6" cy="10" r="2.5"/>
		<circle cx="742.6" cy="10" r="2.5"/>
		<circle cx="757.6" cy="10" r="2.5"/>
		<circle cx="772.6" cy="10" r="2.5"/>
		<circle cx="427.5" cy="25" r="2.5"/>
		<circle cx="442.5" cy="25" r="2.5"/>
		<circle cx="457.5" cy="25" r="2.5"/>
		<circle cx="472.5" cy="25" r="2.5"/>
		<circle cx="487.5" cy="25" r="2.5"/>
		<circle cx="502.5" cy="25" r="2.5"/>
		<circle cx="517.5" cy="25" r="2.5"/>
		<circle cx="532.5" cy="25" r="2.5"/>
		<circle cx="547.5" cy="25" r="2.5"/>
		<circle cx="562.5" cy="25" r="2.5"/>
		<circle cx="577.5" cy="25" r="2.5"/>
		<circle cx="592.5" cy="25" r="2.5"/>
		<circle cx="607.5" cy="25" r="2.5"/>
		<circle cx="622.5" cy="25" r="2.5"/>
		<circle cx="637.6" cy="25" r="2.5"/>
		<circle cx="652.6" cy="25" r="2.5"/>
		<circle cx="667.6" cy="25" r="2.5"/>
		<circle cx="682.6" cy="25" r="2.5"/>
		<circle cx="697.6" cy="25" r="2.5"/>
		<circle cx="712.6" cy="25" r="2.5"/>
		<circle cx="727.6" cy="25" r="2.5"/>
		<circle cx="742.6" cy="25" r="2.5"/>
		<circle cx="757.6" cy="25" r="2.5"/>
		<circle cx="772.6" cy="25" r="2.5"/>
		<circle cx="427.5" cy="40" r="2.5"/>
		<circle cx="442.5" cy="40" r="2.5"/>
		<circle cx="457.5" cy="40" r="2.5"/>
		<circle cx="472.5" cy="40" r="2.5"/>
		<circle cx="487.5" cy="40" r="2.5"/>
		<circle cx="502.5" cy="40" r="2.5"/>
		<circle cx="517.5" cy="40" r="2.5"/>
		<circle cx="532.5" cy="40" r="2.5"/>
		<circle cx="547.5" cy="40" r="2.5"/>
		<circle cx="562.5" cy="40" r="2.5"/>
		<circle cx="577.5" cy="40" r="2.5"/>
		<circle cx="592.5" cy="40" r="2.5"/>
		<circle cx="607.5" cy="40" r="2.5"/>
		<circle cx="622.5" cy="40" r="2.5"/>
		<circle cx="637.6" cy="40" r="2.5"/>
		<circle cx="652.6" cy="40" r="2.5"/>
		<circle cx="667.6" cy="40" r="2.5"/>
		<circle cx="682.6" cy="40" r="2.5"/>
		<circle cx="697.6" cy="40" r="2.5"/>
		<circle cx="712.6" cy="40" r="2.5"/>
		<circle cx="727.6" cy="40" r="2.5"/>
		<circle cx="742.6" cy="40" r="2.5"/>
		<circle cx="757.6" cy="40" r="2.5"/>
		<circle cx="772.6" cy="40" r="2.5"/>
		<circle cx="427.5" cy="55" r="2.5"/>
		<circle cx="442.5" cy="55" r="2.5"/>
		<circle cx="457.5" cy="55" r="2.5"/>
		<circle cx="472.5" cy="55" r="2.5"/>
		<circle cx="487.5" cy="55" r="2.5"/>
		<circle cx="502.5" cy="55" r="2.5"/>
		<circle cx="517.5" cy="55" r="2.5"/>
		<circle cx="532.5" cy="55" r="2.5"/>
		<circle cx="547.5" cy="55" r="2.5"/>
		<circle cx="562.5" cy="55" r="2.5"/>
		<circle cx="577.5" cy="55" r="2.5"/>
		<circle cx="592.5" cy="55" r="2.5"/>
		<circle cx="607.5" cy="55" r="2.5"/>
		<circle cx="622.5" cy="55" r="2.5"/>
		<circle cx="637.6" cy="55" r="2.5"/>
		<circle cx="652.6" cy="55" r="2.5"/>
		<circle cx="667.6" cy="55" r="2.5"/>
		<circle cx="682.6" cy="55" r="2.5"/>
		<circle cx="697.6" cy="55" r="2.5"/>
		<circle cx="712.6" cy="55" r="2.5"/>
		<circle cx="727.6" cy="55" r="2.5"/>
		<circle cx="742.6" cy="55" r="2.5"/>
		<circle cx="757.6" cy="55" r="2.5"/>
		<circle cx="772.6" cy="55" r="2.5"/>
		<circle cx="787.8" cy="10" r="2.5"/>
		<circle cx="802.8" cy="10" r="2.5"/>
		<circle cx="817.8" cy="10" r="2.5"/>
		<circle cx="832.8" cy="10" r="2.5"/>
		<circle cx="847.8" cy="10" r="2.5"/>
		<circle cx="862.8" cy="10" r="2.5"/>
		<circle cx="877.8" cy="10" r="2.5"/>
		<circle cx="892.8" cy="10" r="2.5"/>
		<circle cx="907.8" cy="10" r="2.5"/>
		<circle cx="922.8" cy="10" r="2.5"/>
		<circle cx="937.8" cy="10" r="2.5"/>
		<circle cx="952.8" cy="10" r="2.5"/>
		<circle cx="967.8" cy="10" r="2.5"/>
		<circle cx="982.8" cy="10" r="2.5"/>
		<circle cx="997.8" cy="10" r="2.5"/>
		<circle cx="1012.9" cy="10" r="2.5"/>
		<circle cx="1027.9" cy="10" r="2.5"/>
		<circle cx="1042.9" cy="10" r="2.5"/>
		<circle cx="1057.9" cy="10" r="2.5"/>
		<circle cx="1072.9" cy="10" r="2.5"/>
		<circle cx="1087.9" cy="10" r="2.5"/>
		<circle cx="1102.9" cy="10" r="2.5"/>
		<circle cx="1117.9" cy="10" r="2.5"/>
		<circle cx="1132.9" cy="10" r="2.5"/>
		<circle cx="787.8" cy="25" r="2.5"/>
		<circle cx="802.8" cy="25" r="2.5"/>
		<circle cx="817.8" cy="25" r="2.5"/>
		<circle cx="832.8" cy="25" r="2.5"/>
		<circle cx="847.8" cy="25" r="2.5"/>
		<circle cx="862.8" cy="25" r="2.5"/>
		<circle cx="877.8" cy="25" r="2.5"/>
		<circle cx="892.8" cy="25" r="2.5"/>
		<circle cx="907.8" cy="25" r="2.5"/>
		<circle cx="922.8" cy="25" r="2.5"/>
		<circle cx="937.8" cy="25" r="2.5"/>
		<circle cx="952.8" cy="25" r="2.5"/>
		<circle cx="967.8" cy="25" r="2.5"/>
		<circle cx="982.8" cy="25" r="2.5"/>
		<circle cx="997.8" cy="25" r="2.5"/>
		<circle cx="1012.9" cy="25" r="2.5"/>
		<circle cx="1027.9" cy="25" r="2.5"/>
		<circle cx="1042.9" cy="25" r="2.5"/>
		<circle cx="1057.9" cy="25" r="2.5"/>
		<circle cx="1072.9" cy="25" r="2.5"/>
		<circle cx="1087.9" cy="25" r="2.5"/>
		<circle cx="1102.9" cy="25" r="2.5"/>
		<circle cx="1117.9" cy="25" r="2.5"/>
		<circle cx="1132.9" cy="25" r="2.5"/>
		<circle cx="787.8" cy="40" r="2.5"/>
		<circle cx="802.8" cy="40" r="2.5"/>
		<circle cx="817.8" cy="40" r="2.5"/>
		<circle cx="832.8" cy="40" r="2.5"/>
		<circle cx="847.8" cy="40" r="2.5"/>
		<circle cx="862.8" cy="40" r="2.5"/>
		<circle cx="877.8" cy="40" r="2.5"/>
		<circle cx="892.8" cy="40" r="2.5"/>
		<circle cx="907.8" cy="40" r="2.5"/>
		<circle cx="922.8" cy="40" r="2.5"/>
		<circle cx="937.8" cy="40" r="2.5"/>
		<circle cx="952.8" cy="40" r="2.5"/>
		<circle cx="967.8" cy="40" r="2.5"/>
		<circle cx="982.8" cy="40" r="2.5"/>
		<circle cx="997.8" cy="40" r="2.5"/>
		<circle cx="1012.9" cy="40" r="2.5"/>
		<circle cx="1027.9" cy="40" r="2.5"/>
		<circle cx="1042.9" cy="40" r="2.5"/>
		<circle cx="1057.9" cy="40" r="2.5"/>
		<circle cx="1072.9" cy="40" r="2.5"/>
		<circle cx="1087.9" cy="40" r="2.5"/>
		<circle cx="1102.9" cy="40" r="2.5"/>
		<circle cx="1117.9" cy="40" r="2.5"/>
		<circle cx="1132.9" cy="40" r="2.5"/>
		<circle cx="787.8" cy="55" r="2.5"/>
		<circle cx="802.8" cy="55" r="2.5"/>
		<circle cx="817.8" cy="55" r="2.5"/>
		<circle cx="832.8" cy="55" r="2.5"/>
		<circle cx="847.8" cy="55" r="2.5"/>
		<circle cx="862.8" cy="55" r="2.5"/>
		<circle cx="877.8" cy="55" r="2.5"/>
		<circle cx="892.8" cy="55" r="2.5"/>
		<circle cx="907.8" cy="55" r="2.5"/>
		<circle cx="922.8" cy="55" r="2.5"/>
		<circle cx="937.8" cy="55" r="2.5"/>
		<circle cx="952.8" cy="55" r="2.5"/>
		<circle cx="967.8" cy="55" r="2.5"/>
		<circle cx="982.8" cy="55" r="2.5"/>
		<circle cx="997.8" cy="55" r="2.5"/>
		<circle cx="1012.9" cy="55" r="2.5"/>
		<circle cx="1027.9" cy="55" r="2.5"/>
		<circle cx="1042.9" cy="55" r="2.5"/>
		<circle cx="1057.9" cy="55" r="2.5"/>
		<circle cx="1072.9" cy="55" r="2.5"/>
		<circle cx="1087.9" cy="55" r="2.5"/>
		<circle cx="1102.9" cy="55" r="2.5"/>
		<circle cx="1117.9" cy="55" r="2.5"/>
		<circle cx="1132.9" cy="55" r="2.5"/>
		<circle cx="1148.1" cy="10" r="2.5"/>
		<circle cx="1163.1" cy="10" r="2.5"/>
		<circle cx="1178.1" cy="10" r="2.5"/>
		<circle cx="1193.1" cy="10" r="2.5"/>
		<circle cx="1208.1" cy="10" r="2.5"/>
		<circle cx="1223.1" cy="10" r="2.5"/>
		<circle cx="1238.1" cy="10" r="2.5"/>
		<circle cx="1253.1" cy="10" r="2.5"/>
		<circle cx="1268.1" cy="10" r="2.5"/>
		<circle cx="1283.1" cy="10" r="2.5"/>
		<circle cx="1298.1" cy="10" r="2.5"/>
		<circle cx="1313.1" cy="10" r="2.5"/>
		<circle cx="1328.1" cy="10" r="2.5"/>
		<circle cx="1343.1" cy="10" r="2.5"/>
		<circle cx="1358.1" cy="10" r="2.5"/>
		<circle cx="1373.1" cy="10" r="2.5"/>
		<circle cx="1388.1" cy="10" r="2.5"/>
		<circle cx="1403.2" cy="10" r="2.5"/>
		<circle cx="1418.2" cy="10" r="2.5"/>
		<circle cx="1433.2" cy="10" r="2.5"/>
		<circle cx="1448.2" cy="10" r="2.5"/>
		<circle cx="1463.2" cy="10" r="2.5"/>
		<circle cx="1478.2" cy="10" r="2.5"/>
		<circle cx="1493.2" cy="10" r="2.5"/>
		<circle cx="1148.1" cy="25" r="2.5"/>
		<circle cx="1163.1" cy="25" r="2.5"/>
		<circle cx="1178.1" cy="25" r="2.5"/>
		<circle cx="1193.1" cy="25" r="2.5"/>
		<circle cx="1208.1" cy="25" r="2.5"/>
		<circle cx="1223.1" cy="25" r="2.5"/>
		<circle cx="1238.1" cy="25" r="2.5"/>
		<circle cx="1253.1" cy="25" r="2.5"/>
		<circle cx="1268.1" cy="25" r="2.5"/>
		<circle cx="1283.1" cy="25" r="2.5"/>
		<circle cx="1298.1" cy="25" r="2.5"/>
		<circle cx="1313.1" cy="25" r="2.5"/>
		<circle cx="1328.1" cy="25" r="2.5"/>
		<circle cx="1343.1" cy="25" r="2.5"/>
		<circle cx="1358.1" cy="25" r="2.5"/>
		<circle cx="1373.1" cy="25" r="2.5"/>
		<circle cx="1388.1" cy="25" r="2.5"/>
		<circle cx="1403.2" cy="25" r="2.5"/>
		<circle cx="1418.2" cy="25" r="2.5"/>
		<circle cx="1433.2" cy="25" r="2.5"/>
		<circle cx="1448.2" cy="25" r="2.5"/>
		<circle cx="1463.2" cy="25.3" r="2.5"/>
		<circle cx="1478.2" cy="25.3" r="2.5"/>
		<circle cx="1493.2" cy="25.3" r="2.5"/>
		<circle cx="1148.1" cy="40" r="2.5"/>
		<circle cx="1163.1" cy="40" r="2.5"/>
		<circle cx="1178.1" cy="40" r="2.5"/>
		<circle cx="1193.1" cy="40" r="2.5"/>
		<circle cx="1208.1" cy="40" r="2.5"/>
		<circle cx="1223.1" cy="40" r="2.5"/>
		<circle cx="1238.1" cy="40" r="2.5"/>
		<circle cx="1253.1" cy="40" r="2.5"/>
		<circle cx="1268.1" cy="40" r="2.5"/>
		<circle cx="1283.1" cy="40" r="2.5"/>
		<circle cx="1298.1" cy="40" r="2.5"/>
		<circle cx="1313.1" cy="40" r="2.5"/>
		<circle cx="1328.1" cy="40" r="2.5"/>
		<circle cx="1343.1" cy="40" r="2.5"/>
		<circle cx="1358.1" cy="40" r="2.5"/>
		<circle cx="1373.1" cy="40" r="2.5"/>
		<circle cx="1388.1" cy="40" r="2.5"/>
		<circle cx="1403.2" cy="40" r="2.5"/>
		<circle cx="1418.2" cy="40" r="2.5"/>
		<circle cx="1433.2" cy="40" r="2.5"/>
		<circle cx="1448.2" cy="40.3" r="2.5"/>
		<circle cx="1463.2" cy="40.3" r="2.5"/>
		<circle cx="1478.2" cy="40.3" r="2.5"/>
		<circle cx="1493.2" cy="40.3" r="2.5"/>
		<circle cx="1148.1" cy="55" r="2.5"/>
		<circle cx="1163.1" cy="55" r="2.5"/>
		<circle cx="1178.1" cy="55" r="2.5"/>
		<circle cx="1193.1" cy="55" r="2.5"/>
		<circle cx="1208.1" cy="55" r="2.5"/>
		<circle cx="1223.1" cy="55" r="2.5"/>
		<circle cx="1238.1" cy="55" r="2.5"/>
		<circle cx="1253.1" cy="55" r="2.5"/>
		<circle cx="1268.1" cy="55" r="2.5"/>
		<circle cx="1283.1" cy="55" r="2.5"/>
		<circle cx="1298.1" cy="55" r="2.5"/>
		<circle cx="1313.1" cy="55" r="2.5"/>
		<circle cx="1328.1" cy="55" r="2.5"/>
		<circle cx="1343.1" cy="55" r="2.5"/>
		<circle cx="1358.1" cy="55" r="2.5"/>
		<circle cx="1373.1" cy="55" r="2.5"/>
		<circle cx="1388.1" cy="55" r="2.5"/>
		<circle cx="1403.2" cy="55" r="2.5"/>
		<circle cx="1418.2" cy="55" r="2.5"/>
		<circle cx="1433.2" cy="55" r="2.5"/>
		<circle cx="1448.2" cy="55.3" r="2.5"/>
		<circle cx="1463.2" cy="55.3" r="2.5"/>
		<circle cx="1478.2" cy="55.3" r="2.5"/>
		<circle cx="1493.2" cy="55.3" r="2.5"/>
	</g>
</g>
<rect x="404.7" y="16" class="st1" width="695" height="32"/>
<circle cx="7" cy="9.7" r="2.5"/>
<circle cx="22" cy="9.7" r="2.5"/>
<circle cx="37" cy="9.7" r="2.5"/>
<circle cx="52" cy="9.7" r="2.5"/>
<circle cx="7" cy="24.7" r="2.5"/>
<circle cx="22" cy="25" r="2.5"/>
<circle cx="37" cy="25" r="2.5"/>
<circle cx="52" cy="25" r="2.5"/>
<circle cx="7" cy="40" r="2.5"/>
<circle cx="22" cy="40" r="2.5"/>
<circle cx="37" cy="40" r="2.5"/>
<circle cx="52" cy="40" r="2.5"/>
<circle cx="7" cy="55" r="2.5"/>
<circle cx="22" cy="55" r="2.5"/>
<circle cx="37" cy="55" r="2.5"/>
<circle cx="52" cy="55" r="2.5"/>
</svg>
