<svg width="95" height="19" viewBox="0 0 95 19" fill="none" xmlns="http://www.w3.org/2000/svg">
<path d="M15.2634 0.863999V4.8H10.1274V18H5.66341V4.8H0.551406V0.863999H15.2634ZM18.9733 3.024C20.4773 1.376 22.5813 0.551999 25.2853 0.551999C27.9893 0.551999 30.0933 1.376 31.5973 3.024C33.1013 4.672 33.8533 6.808 33.8533 9.432C33.8533 12.056 33.1013 14.192 31.5973 15.84C30.0933 17.488 27.9893 18.312 25.2853 18.312C22.5813 18.312 20.4773 17.488 18.9733 15.84C17.4693 14.192 16.7173 12.056 16.7173 9.432C16.7173 6.808 17.4693 4.672 18.9733 3.024ZM22.3093 13.032C22.9973 13.928 23.9893 14.376 25.2853 14.376C26.5813 14.376 27.5733 13.928 28.2613 13.032C28.9493 12.12 29.2933 10.92 29.2933 9.432C29.2933 7.944 28.9493 6.752 28.2613 5.856C27.5733 4.944 26.5813 4.488 25.2853 4.488C23.9893 4.488 22.9973 4.936 22.3093 5.832C21.6213 6.728 21.2773 7.928 21.2773 9.432C21.2773 10.92 21.6213 12.12 22.3093 13.032ZM47.9332 0.863999H54.6052V18H50.5012V6.408H49.8292L47.8852 12.576H43.5172L41.5732 6.408H40.9012V18H36.7972V0.863999H43.4692L45.3652 7.08H46.0372L47.9332 0.863999ZM69.4488 0.863999H76.1208V18H72.0168V6.408H71.3448L69.4008 12.576H65.0328L63.0888 6.408H62.4168V18H58.3128V0.863999H64.9848L66.8808 7.08H67.5528L69.4488 0.863999ZM86.0445 7.104H86.7165L89.8365 0.863999H94.4925L88.6125 12.168V18H84.1485V12.144L78.2925 0.863999H82.9005L86.0445 7.104Z" fill="black"/>
</svg>
